<svg width="1440" height="1024" viewBox="0 0 1440 1024" fill="none" xmlns="http://www.w3.org/2000/svg">
<path d="M206.46 515.584L289.44 859.563H1196.1L1234.44 575.147C1235.25 569.003 1234.8 562.688 1233.09 556.715L1153.35 283.307C1148.13 265.387 1132.2 252.075 1112.85 249.344L505.71 164.864C488.16 162.389 470.61 169.045 459.63 182.272L215.82 476.075C206.55 487.253 203.13 501.76 206.46 515.584Z" fill="#F4F4F4"/>
<path d="M928.89 297.643V545.451L1228.5 541.184L1157.58 297.643H928.89Z" fill="#EAEAEA"/>
<path d="M829.53 620.715H521.28C515.61 620.715 511.02 616.363 511.02 610.987V441.003H829.53C835.2 441.003 839.79 445.355 839.79 450.731V610.987C839.79 616.363 835.2 620.715 829.53 620.715Z" fill="#B2B6BB"/>
<path d="M520.02 620.715H473.04C467.37 620.715 462.78 616.363 462.78 610.987V450.645C462.78 445.269 467.37 440.917 473.04 440.917H520.02C525.69 440.917 530.28 445.269 530.28 450.645V610.987C530.28 616.363 525.69 620.715 520.02 620.715Z" fill="#868A91"/>
<path d="M833.58 859.136H985.14V587.349C985.14 581.973 980.55 577.621 974.88 577.621H843.84C838.17 577.621 833.58 581.973 833.58 587.349V859.136Z" fill="#868A91"/>
<path d="M951.3 859.136H1018.8V587.349C1018.8 581.973 1014.21 577.621 1008.54 577.621H961.56C955.89 577.621 951.3 581.973 951.3 587.349V859.136Z" fill="#B2B6BB"/>
<path d="M951.867 735.34V671.34H610.861V735.34H951.867Z" fill="#B2B6BB"/>
<path opacity="0.2" d="M627.001 735.31V671.31H617.461V735.31H627.001Z" fill="black"/>
<path d="M991.26 817.323L994.5 822.101C998.73 828.416 1005.21 833.195 1012.68 835.499L1053.63 849.237C1057.32 850.347 1056.87 855.467 1053 855.467H1047.87C1047.24 856.32 1046.16 856.832 1044.99 856.832C1043.91 856.832 1042.65 856.32 1041.84 855.637C1041.75 855.552 1041.66 855.552 1041.57 855.467H1040.85C1040.76 855.552 1040.58 855.552 1040.49 855.723C1039.86 856.405 1038.87 856.917 1037.79 856.917C1036.8 856.917 1035.63 856.491 1034.82 855.893C1034.46 855.552 1033.83 855.637 1033.56 855.979C1033.02 856.576 1032.3 856.917 1031.4 856.917C1030.59 856.917 1029.6 856.576 1028.88 856.064C1028.52 855.808 1027.98 855.893 1027.71 856.149C1027.17 856.576 1026.54 856.917 1025.73 856.917C1024.65 856.917 1023.75 856.32 1023.3 855.552H1022.94L972.27 854.784C967.41 854.699 963.81 853.248 961.74 849.664L951.3 831.915L991.26 817.323Z" fill="#FC9D9D"/>
<path opacity="0.15" d="M951.3 831.829L991.08 817.237L967.59 832.085C966.15 833.024 965.7 834.816 966.51 836.181L972.09 845.909C973.98 849.067 977.04 850.603 981.18 850.944C982.08 851.029 982.98 850.944 983.79 850.773C989.37 849.579 995.13 849.067 1000.89 849.323C1009.62 843.605 1015.11 836.267 1015.11 836.267L1022.58 838.059L1031.4 853.675L1022.76 853.76L1028.52 855.723C1028.25 855.637 1027.89 855.723 1027.62 855.979C1027.08 856.405 1026.45 856.747 1025.64 856.747C1024.56 856.747 1023.66 856.149 1023.21 855.381H1022.85L972.18 854.613C967.32 854.528 963.72 853.077 961.65 849.493L951.3 831.829Z" fill="black"/>
<path d="M768.78 607.488L750.78 489.899C748.89 477.781 739.44 467.968 726.93 465.152L678.78 454.315L630.27 454.741L585.45 464.896C569.52 468.48 559.17 483.072 561.6 498.432L566.82 531.029L575.64 549.12C576.09 550.144 576.36 551.168 576.63 552.192L584.82 594.603C586.26 602.112 593.19 607.488 601.2 607.488H768.78Z" fill="#4D61FC"/>
<path d="M740.88 489.131C740.25 489.131 739.62 488.704 739.53 488.021L738.9 483.925C738.81 483.243 739.26 482.56 740.07 482.475C740.79 482.389 741.51 482.816 741.6 483.584L742.23 487.68C742.32 488.363 741.87 489.045 741.06 489.131C741.06 489.131 740.97 489.131 740.88 489.131Z" fill="white"/>
<path d="M688.77 535.893C688.05 535.893 687.51 535.381 687.42 534.699L686.97 530.517C686.88 529.835 687.42 529.152 688.23 529.152C688.95 529.067 689.67 529.579 689.67 530.347L690.12 534.528C690.21 535.211 689.67 535.893 688.86 535.893H688.77Z" fill="white"/>
<path d="M616.14 487.936C615.42 487.936 614.88 487.424 614.79 486.741L614.34 482.56C614.25 481.877 614.79 481.195 615.6 481.195C616.32 481.109 617.04 481.621 617.04 482.389L617.49 486.571C617.58 487.253 617.04 487.936 616.23 487.936C616.23 487.851 616.14 487.936 616.14 487.936Z" fill="white"/>
<path d="M576.45 479.403C575.91 479.061 575.73 478.293 576 477.696L578.16 474.027C578.52 473.429 579.33 473.173 579.96 473.515C580.59 473.856 580.86 474.624 580.5 475.221L578.34 478.891C577.98 479.488 577.17 479.744 576.54 479.403C576.45 479.488 576.45 479.488 576.45 479.403Z" fill="white"/>
<path d="M646.65 545.28C646.38 545.28 646.02 545.195 645.84 545.024C645.3 544.597 645.21 543.744 645.66 543.232L648.45 539.989C648.9 539.477 649.8 539.392 650.34 539.819C650.88 540.245 650.97 541.099 650.52 541.611L647.73 544.853C647.37 545.109 647.01 545.28 646.65 545.28Z" fill="white"/>
<path d="M709.29 470.955C709.02 470.955 708.66 470.869 708.39 470.613C707.85 470.187 707.76 469.333 708.21 468.821L710.82 465.835C711.27 465.323 712.17 465.237 712.71 465.664C713.25 466.091 713.34 466.944 712.89 467.456L710.28 470.443C710.01 470.784 709.65 470.955 709.29 470.955Z" fill="white"/>
<path d="M647.19 507.051C646.74 507.051 646.29 506.795 646.02 506.453L643.86 503.125C643.5 502.528 643.68 501.76 644.31 501.333C644.94 500.992 645.75 501.163 646.2 501.76L648.36 505.088C648.72 505.685 648.54 506.453 647.91 506.88C647.64 506.965 647.37 507.051 647.19 507.051Z" fill="white"/>
<path d="M598.23 513.707C598.14 513.707 598.05 513.707 597.96 513.707L594 512.768C593.28 512.597 592.83 511.915 593.01 511.232C593.19 510.549 593.91 510.123 594.63 510.293L598.59 511.232C599.31 511.403 599.76 512.085 599.58 512.768C599.4 513.365 598.77 513.707 598.23 513.707Z" fill="white"/>
<path d="M717.75 558.592C717.48 558.592 717.12 558.507 716.85 558.251C716.31 557.824 716.22 556.971 716.67 556.459L719.28 553.472C719.73 552.96 720.63 552.875 721.17 553.301C721.71 553.728 721.8 554.581 721.35 555.093L718.74 558.08C718.56 558.507 718.11 558.592 717.75 558.592Z" fill="white"/>
<path d="M709.29 508.928C709.2 508.928 709.02 508.928 708.93 508.843L704.52 507.563C703.8 507.392 703.44 506.624 703.62 505.941C703.8 505.259 704.61 504.917 705.33 505.088L709.74 506.368C710.46 506.539 710.82 507.307 710.64 507.989C710.46 508.587 709.92 508.928 709.29 508.928Z" fill="white"/>
<path d="M743.31 539.307C743.22 539.221 743.13 539.136 743.04 539.051L740.43 535.381C739.98 534.784 740.16 534.016 740.79 533.589C741.42 533.163 742.23 533.333 742.68 533.931L745.29 537.6C745.74 538.197 745.56 538.965 744.93 539.392C744.39 539.733 743.76 539.648 743.31 539.307Z" fill="white"/>
<path d="M950.76 744.704C950.49 744.704 950.22 744.533 950.22 744.277V629.675C950.22 629.419 950.49 629.248 950.76 629.248C951.03 629.248 951.3 629.419 951.3 629.675V744.277C951.3 744.533 951.03 744.704 950.76 744.704Z" fill="#868A91"/>
<path d="M680.4 485.803C680.31 485.803 680.13 485.803 680.04 485.717L675.63 484.437C674.91 484.267 674.55 483.499 674.73 482.816C674.91 482.133 675.72 481.792 676.44 481.963L680.85 483.243C681.57 483.413 681.93 484.181 681.75 484.864C681.48 485.461 680.94 485.803 680.4 485.803Z" fill="white"/>
<path d="M676.62 570.709C676.53 570.709 676.35 570.709 676.26 570.624L671.85 569.344C671.13 569.173 670.77 568.405 670.95 567.723C671.13 567.04 671.94 566.699 672.66 566.869L677.07 568.149C677.79 568.32 678.15 569.088 677.97 569.771C677.7 570.368 677.16 570.709 676.62 570.709Z" fill="white"/>
<path opacity="0.2" d="M618.93 567.723L611.82 501.419C611.73 500.565 612.99 500.309 613.26 501.163L635.4 570.027L618.93 567.723Z" fill="black"/>
<path opacity="0.2" d="M718.74 594.347L718.83 594.261L719.01 594.432L718.74 594.347Z" fill="black"/>
<path d="M751.14 598.357C750.24 599.381 748.62 599.637 747.45 598.784L731.52 587.691L751.77 596.48C751.86 597.163 751.59 597.845 751.14 598.357Z" fill="#868A91"/>
<path d="M991.17 817.323L951.3 831.915L855.54 671.317H688.41V607.488H880.47C892.35 607.488 903.06 614.315 907.56 624.725L991.17 817.323Z" fill="#3F4249"/>
<path opacity="0.2" d="M970.56 824.832L951.3 831.915L855.54 671.317H688.41V607.488H847.35C859.23 607.488 869.94 614.315 874.44 624.725L970.56 824.832Z" fill="black"/>
<path d="M890.55 817.323L850.59 831.915L754.92 671.317H587.79V607.488H779.85C791.73 607.488 802.44 614.315 806.94 624.725L890.55 817.323Z" fill="#3F4249"/>
<path opacity="0.2" d="M780.75 657.749C774 645.291 766.53 641.621 751.77 641.621H637.02L640.89 607.488H617.4V671.317H626.94H754.83L850.59 831.915L868.5 825.344L780.75 657.749Z" fill="black"/>
<path d="M890.55 817.323L893.79 822.101C898.02 828.416 904.5 833.195 911.97 835.499L952.92 849.237C956.61 850.347 956.16 855.467 952.29 855.467H947.16C946.53 856.32 945.45 856.832 944.28 856.832C943.2 856.832 941.94 856.32 941.13 855.637C941.04 855.552 940.95 855.552 940.86 855.467H940.14C940.05 855.552 939.87 855.552 939.78 855.723C939.15 856.405 938.16 856.917 937.08 856.917C936.09 856.917 934.92 856.491 934.11 855.893C933.75 855.552 933.12 855.637 932.85 855.979C932.31 856.576 931.59 856.917 930.69 856.917C929.88 856.917 928.89 856.576 928.17 856.064C927.81 855.808 927.27 855.893 927 856.149C926.46 856.576 925.83 856.917 925.02 856.917C923.94 856.917 923.04 856.32 922.59 855.552H922.23L871.56 854.784C866.7 854.699 863.1 853.248 861.03 849.664L850.59 831.915L890.55 817.323Z" fill="#FC9D9D"/>
<path opacity="0.15" d="M863.64 827.136L890.55 817.323L868.68 835.755L873 843.093C875.07 846.677 878.67 848.128 883.53 848.213L934.2 848.981H934.56C935.01 849.835 936 850.347 936.99 850.347C937.71 850.347 938.43 850.091 938.97 849.579C939.33 849.323 939.78 849.237 940.14 849.493C940.86 850.005 941.85 850.347 942.66 850.347C943.56 850.347 944.28 850.005 944.82 849.408C945.18 849.067 945.72 849.067 946.08 849.323C946.89 850.005 948.06 850.347 949.05 850.347C950.13 850.347 951.12 849.92 951.75 849.152C951.84 849.067 951.93 848.981 952.11 848.896H952.2L953.01 849.152C953.28 849.237 953.46 849.323 953.64 849.408C953.73 849.493 953.91 849.579 954 849.664C956.52 851.371 955.8 855.467 952.38 855.467H947.25C946.62 856.32 945.54 856.832 944.37 856.832C943.29 856.832 942.03 856.32 941.22 855.637C941.13 855.552 941.04 855.552 940.95 855.467H940.23C940.14 855.552 939.96 855.552 939.87 855.723C939.24 856.405 938.25 856.917 937.17 856.917C936.18 856.917 935.01 856.491 934.2 855.893C933.84 855.552 933.21 855.637 932.94 855.979C932.4 856.576 931.68 856.917 930.78 856.917C929.97 856.917 928.98 856.576 928.26 856.064C927.9 855.808 927.36 855.893 927.09 856.149C926.55 856.576 925.92 856.917 925.11 856.917C924.03 856.917 923.13 856.32 922.68 855.552H922.32L871.65 854.784C866.79 854.699 863.19 853.248 861.12 849.664L850.68 831.915L863.64 827.136Z" fill="black"/>
<path opacity="0.15" d="M914.49 836.352C914.49 836.352 906.57 849.579 891.72 854.357H906.75L914.49 836.352Z" fill="black"/>
<path d="M429.39 859.136H570.69C576.36 859.136 580.95 854.784 580.95 849.408V587.349C580.95 581.973 576.36 577.621 570.69 577.621H439.65C433.98 577.621 429.39 581.973 429.39 587.349V859.136Z" fill="#868A91"/>
<path opacity="0.4" d="M354.24 436.992H343.17V478.123V853.675H346.32V441.173H354.24V436.992Z" fill="black"/>
<path d="M326.61 436.992H370.71C374.76 436.992 378.09 433.835 378.09 429.995V408.235H319.32V429.995C319.32 433.835 322.56 436.992 326.61 436.992Z" fill="#61656D"/>
<path d="M343.128 853.623H354.198V436.939H343.128V853.623Z" fill="#61656D"/>
<path d="M354.24 436.992H343.17V843.947H346.23V440.917H354.24V436.992Z" fill="#21252B"/>
<path d="M326.7 429.995V424.448H319.32V429.995C319.32 433.835 322.65 436.992 326.7 436.992H334.08C329.94 436.992 326.7 433.835 326.7 429.995Z" fill="#21252B"/>
<path d="M289.44 858.709C287.37 858.709 286.65 855.979 288.54 855.125C306 847.104 326.61 842.411 348.66 842.411C370.71 842.411 391.32 847.019 408.78 855.125C410.67 855.979 410.04 858.709 407.88 858.709H289.44Z" fill="#61656D"/>
<path d="M355.5 842.581C353.25 842.496 351 842.411 348.75 842.411C326.7 842.411 306.09 847.019 288.63 855.125C286.74 855.979 287.37 858.709 289.53 858.709H309.6C314.91 851.883 334.53 843.861 355.5 842.581Z" fill="#21252B"/>
<path d="M1222.65 859.563H248.67C248.4 859.563 248.22 859.392 248.22 859.136C248.22 858.88 248.4 858.709 248.67 858.709H1222.65C1222.92 858.709 1223.1 858.88 1223.1 859.136C1223.1 859.392 1222.92 859.563 1222.65 859.563Z" fill="#B2B6BB"/>
<path d="M395.37 570.453C395.1 570.453 394.92 570.283 394.92 570.027V424.96C394.92 424.704 395.1 424.533 395.37 424.533C395.64 424.533 395.82 424.704 395.82 424.96V570.027C395.82 570.283 395.55 570.453 395.37 570.453Z" fill="#21252B"/>
<path d="M568.17 578.731H467.01C466.74 578.731 466.56 578.475 466.56 578.133C466.56 577.792 466.74 577.536 467.01 577.536H568.26C568.53 577.536 568.71 577.792 568.71 578.133C568.71 578.475 568.44 578.731 568.17 578.731Z" fill="#B2B6BB"/>
<path opacity="0.2" d="M1002.78 303.019L1100.7 540.075H1131.57L1031.94 303.019H1002.78Z" fill="white"/>
<path opacity="0.2" d="M1045.8 303.019L1143.81 540.075H1154.07L1054.44 303.019H1045.8Z" fill="white"/>
<path d="M1228.14 540.075H1085.76V303.019H1159.11L1155.96 292.267H923.13V550.827H1231.2L1228.14 540.075ZM934.56 303.019H1074.42V540.075H934.56V303.019Z" fill="white"/>
<path d="M533.34 577.707H510.12C506.52 577.707 503.64 574.976 503.64 571.563V535.381H539.91V571.563C539.82 574.976 536.94 577.707 533.34 577.707Z" fill="#21252B"/>
<path d="M545.49 565.333H539.82V562.688H545.49C546.93 562.688 548.1 561.579 548.1 560.213V545.451C548.1 544.085 546.93 542.976 545.49 542.976H539.82V540.331H545.49C548.46 540.331 550.8 542.635 550.8 545.365V560.128C550.89 563.029 548.46 565.333 545.49 565.333Z" fill="#21252B"/>
<path opacity="0.6" d="M542.34 542.976V540.331H539.82V535.296H531.9V570.88C531.9 573.952 529.29 576.427 526.05 576.427H505.98C507.06 577.28 508.5 577.792 510.03 577.792H533.25C536.85 577.792 539.73 575.061 539.73 571.648V565.419H542.25V562.773H539.73V543.061H542.34V542.976Z" fill="black"/>
<path d="M515.97 532.736C515.7 532.736 515.52 532.565 515.52 532.309C515.52 529.067 512.73 526.336 509.22 526.336H506.16C503.46 526.336 501.3 524.288 501.3 521.728C501.3 519.168 503.46 517.12 506.16 517.12H523.44C525.6 517.12 527.4 515.413 527.4 513.365C527.4 511.317 525.6 509.611 523.44 509.611H519.3C516.51 509.611 514.35 507.477 514.35 504.917C514.35 504.661 514.53 504.491 514.8 504.491C515.07 504.491 515.25 504.661 515.25 504.917C515.25 507.051 517.05 508.757 519.3 508.757H523.44C526.14 508.757 528.3 510.805 528.3 513.365C528.3 515.925 526.14 517.973 523.44 517.973H506.16C504 517.973 502.2 519.68 502.2 521.728C502.2 523.776 504 525.483 506.16 525.483H509.22C513.18 525.483 516.42 528.555 516.42 532.309C516.42 532.565 516.24 532.736 515.97 532.736Z" fill="white"/>
<path d="M525.96 535.381C525.69 535.381 525.51 535.211 525.51 534.955V533.931C525.51 533.163 524.88 532.565 524.07 532.565C522.72 532.565 521.73 531.541 521.73 530.347V528.555C521.73 527.275 522.81 526.336 524.07 526.336H526.95C530.82 526.336 534.06 523.349 534.06 519.595V516.267C534.06 516.011 534.24 515.84 534.51 515.84C534.78 515.84 534.96 516.011 534.96 516.267V519.509C534.96 523.691 531.36 527.104 526.95 527.104H524.07C523.26 527.104 522.63 527.701 522.63 528.469V530.261C522.63 531.029 523.26 531.627 524.07 531.627C525.42 531.627 526.41 532.651 526.41 533.845V534.869C526.41 535.125 526.23 535.381 525.96 535.381Z" fill="white"/>
<path opacity="0.6" d="M671.31 549.717C672.304 549.717 673.11 548.954 673.11 548.011C673.11 547.069 672.304 546.304 671.31 546.304C670.316 546.304 669.51 547.069 669.51 548.011C669.51 548.954 670.316 549.717 671.31 549.717Z" fill="black"/>
<path opacity="0.6" d="M746.37 519.083C747.364 519.083 748.17 518.319 748.17 517.376C748.17 516.434 747.364 515.669 746.37 515.669C745.376 515.669 744.57 516.434 744.57 517.376C744.57 518.319 745.376 519.083 746.37 519.083Z" fill="black"/>
<path opacity="0.6" d="M711.63 486.4C712.625 486.4 713.43 485.636 713.43 484.693C713.43 483.75 712.625 482.987 711.63 482.987C710.636 482.987 709.83 483.75 709.83 484.693C709.83 485.636 710.636 486.4 711.63 486.4Z" fill="black"/>
<path opacity="0.6" d="M673.65 509.781C674.644 509.781 675.45 509.018 675.45 508.075C675.45 507.133 674.644 506.368 673.65 506.368C672.655 506.368 671.85 507.133 671.85 508.075C671.85 509.018 672.655 509.781 673.65 509.781Z" fill="black"/>
<path opacity="0.6" d="M719.1 571.733C720.094 571.733 720.9 570.97 720.9 570.027C720.9 569.084 720.094 568.32 719.1 568.32C718.105 568.32 717.3 569.084 717.3 570.027C717.3 570.97 718.105 571.733 719.1 571.733Z" fill="black"/>
<path opacity="0.6" d="M712.44 533.76C713.435 533.76 714.24 532.996 714.24 532.053C714.24 531.11 713.435 530.347 712.44 530.347C711.446 530.347 710.64 531.11 710.64 532.053C710.64 532.996 711.446 533.76 712.44 533.76Z" fill="black"/>
<path opacity="0.6" d="M641.88 476.587C642.875 476.587 643.68 475.823 643.68 474.88C643.68 473.937 642.875 473.173 641.88 473.173C640.886 473.173 640.08 473.937 640.08 474.88C640.08 475.823 640.886 476.587 641.88 476.587Z" fill="black"/>
<path opacity="0.6" d="M599.04 471.552C600.034 471.552 600.84 470.788 600.84 469.845C600.84 468.903 600.034 468.139 599.04 468.139C598.046 468.139 597.24 468.903 597.24 469.845C597.24 470.788 598.046 471.552 599.04 471.552Z" fill="black"/>
<path opacity="0.6" d="M631.98 520.021C632.974 520.021 633.78 519.258 633.78 518.315C633.78 517.373 632.974 516.608 631.98 516.608C630.986 516.608 630.18 517.373 630.18 518.315C630.18 519.258 630.986 520.021 631.98 520.021Z" fill="black"/>
<path opacity="0.6" d="M633.78 565.504C634.774 565.504 635.58 564.74 635.58 563.797C635.58 562.855 634.774 562.091 633.78 562.091C632.786 562.091 631.98 562.855 631.98 563.797C631.98 564.74 632.786 565.504 633.78 565.504Z" fill="black"/>
<path opacity="0.6" d="M574.47 502.016C575.464 502.016 576.27 501.252 576.27 500.309C576.27 499.367 575.464 498.603 574.47 498.603C573.475 498.603 572.67 499.367 572.67 500.309C572.67 501.252 573.475 502.016 574.47 502.016Z" fill="black"/>
<path d="M1055.43 859.136H962.55C961.2 859.136 960.03 858.112 960.03 856.747C960.03 855.467 961.11 854.357 962.55 854.357H1057.86V856.747C1057.86 858.027 1056.78 859.136 1055.43 859.136Z" fill="#4D61FC"/>
<path d="M1057.86 854.357C1057.68 849.323 1054.26 844.971 1049.22 843.264L1018.44 833.109C1017.09 832.683 1015.74 833.365 1015.38 834.645C1014.03 838.912 1010.7 848.043 1004.13 854.357H962.55C961.2 854.357 960.03 855.381 960.03 856.747C960.03 858.112 961.11 859.136 962.55 859.136H1055.43C1056.78 859.136 1057.86 858.112 1057.86 856.832V854.357Z" fill="#4D61FC"/>
<path d="M1057.86 854.357C1057.68 849.323 1054.26 844.971 1049.22 843.264L1018.44 833.109C1017.09 832.683 1015.74 833.365 1015.38 834.645C1014.03 838.912 1010.7 848.043 1004.13 854.357H962.55C961.2 854.357 960.03 855.381 960.03 856.747C960.03 858.112 961.11 859.136 962.55 859.136H1055.43C1056.78 859.136 1057.86 858.112 1057.86 856.832V854.357Z" fill="#21252B"/>
<path opacity="0.4" d="M1057.86 854.357C1057.68 850.347 1055.52 846.763 1052.1 844.629C1056.51 847.616 1055.7 850.603 1049.4 850.347C1016.91 848.896 1012.68 848.896 1008.9 848.555C1008.99 848.469 1008.99 848.384 1008.99 848.299C1007.55 850.432 1005.93 852.565 1004.04 854.357H962.46C961.11 854.357 959.94 855.381 959.94 856.747C959.94 858.112 961.02 859.136 962.46 859.136H1055.34C1056.69 859.136 1057.77 858.112 1057.77 856.832V854.357H1057.86Z" fill="black"/>
<path opacity="0.4" d="M1057.77 853.589H1004.85L1004.04 854.357H1057.77V853.589Z" fill="black"/>
<path d="M955.08 859.136H862.2C860.85 859.136 859.68 858.112 859.68 856.747C859.68 855.467 860.76 854.357 862.2 854.357H957.51V856.747C957.51 858.027 956.43 859.136 955.08 859.136Z" fill="#4D61FC"/>
<path d="M957.51 854.357C957.33 849.323 953.91 844.971 948.87 843.264L918.09 833.109C916.74 832.683 915.39 833.365 915.03 834.645C913.68 838.912 910.35 848.043 903.78 854.357H862.2C860.85 854.357 859.68 855.381 859.68 856.747C859.68 858.112 860.76 859.136 862.2 859.136H955.08C956.43 859.136 957.51 858.112 957.51 856.832V854.357Z" fill="#4D61FC"/>
<path d="M957.51 854.357C957.33 849.323 953.91 844.971 948.87 843.264L918.09 833.109C916.74 832.683 915.39 833.365 915.03 834.645C913.68 838.912 910.35 848.043 903.78 854.357H862.2C860.85 854.357 859.68 855.381 859.68 856.747C859.68 858.112 860.76 859.136 862.2 859.136H955.08C956.43 859.136 957.51 858.112 957.51 856.832V854.357Z" fill="#21252B"/>
<path opacity="0.4" d="M957.51 854.357C957.33 850.347 955.17 846.763 951.75 844.629C956.16 847.616 955.35 850.603 949.05 850.347C916.56 848.896 912.33 848.896 908.55 848.555C908.64 848.469 908.64 848.384 908.64 848.299C907.2 850.432 905.58 852.565 903.69 854.357H862.2C860.85 854.357 859.68 855.381 859.68 856.747C859.68 858.112 860.76 859.136 862.2 859.136H955.08C956.43 859.136 957.51 858.112 957.51 856.832V854.357Z" fill="black"/>
<path opacity="0.4" d="M957.51 853.589H904.5L903.78 854.357H957.51V853.589Z" fill="black"/>
<path d="M631.35 259.157C631.35 239.275 615.51 222.891 595.08 220.757V220.501H590.58C568.08 220.501 549.81 237.824 549.81 259.157C549.81 280.491 568.08 297.813 590.58 297.813H595.08V297.557C615.51 295.424 631.35 279.04 631.35 259.157Z" fill="#B2B6BB"/>
<path d="M595.08 297.813C617.596 297.813 635.85 280.507 635.85 259.157C635.85 237.809 617.596 220.501 595.08 220.501C572.563 220.501 554.31 237.809 554.31 259.157C554.31 280.507 572.563 297.813 595.08 297.813Z" fill="#868A91"/>
<path d="M595.08 293.547C615.111 293.547 631.35 278.15 631.35 259.157C631.35 240.165 615.111 224.768 595.08 224.768C575.049 224.768 558.81 240.165 558.81 259.157C558.81 278.15 575.049 293.547 595.08 293.547Z" fill="white"/>
<path d="M595.08 293.547C615.111 293.547 631.35 278.15 631.35 259.157C631.35 240.165 615.111 224.768 595.08 224.768C575.049 224.768 558.81 240.165 558.81 259.157C558.81 278.15 575.049 293.547 595.08 293.547Z" fill="#868A91"/>
<path opacity="0.9" d="M595.08 293.547C615.111 293.547 631.35 278.15 631.35 259.157C631.35 240.165 615.111 224.768 595.08 224.768C575.049 224.768 558.81 240.165 558.81 259.157C558.81 278.15 575.049 293.547 595.08 293.547Z" fill="white"/>
<path d="M595.08 224.768C594.45 224.768 593.82 224.768 593.1 224.853C612.18 225.792 627.39 240.811 627.39 259.157C627.39 277.504 612.18 292.523 593.1 293.461C593.73 293.461 594.36 293.547 595.08 293.547C615.15 293.547 631.35 278.187 631.35 259.157C631.35 240.128 615.15 224.768 595.08 224.768Z" fill="#B2B6BB"/>
<path d="M595.44 261.803L583.38 239.104C582.93 238.251 583.29 237.141 584.19 236.715C585.09 236.288 586.26 236.629 586.71 237.483L597.06 257.024L610.83 250.624C611.73 250.197 612.9 250.539 613.35 251.477C613.8 252.331 613.44 253.44 612.45 253.867L595.44 261.803Z" fill="#4D61FC"/>
<path d="M1162.44 740.608L1121.13 783.104L1121.4 704.939H1120.32L1120.23 742.827L1085.31 709.12L1084.59 709.803L1120.23 744.277L1119.96 815.104H1121.04L1121.13 784.555L1163.16 741.291L1162.44 740.608Z" fill="#21252B"/>
<path d="M1089.36 783.019L1088.64 783.701L1106.82 799.915L1109.7 815.189L1110.69 815.019L1099.26 753.92L1098.18 754.091L1106.55 798.293L1089.36 783.019Z" fill="#21252B"/>
<path d="M1102.77 859.136H1128.42C1133.19 859.136 1137.15 855.467 1137.15 850.859V818.688H1094.04V850.859C1094.04 855.381 1097.91 859.136 1102.77 859.136Z" fill="#61656D"/>
<path d="M1120.86 705.024C1135.67 705.024 1147.68 693.639 1147.68 679.595C1147.68 665.55 1135.67 654.165 1120.86 654.165C1106.05 654.165 1094.04 665.55 1094.04 679.595C1094.04 693.639 1106.05 705.024 1120.86 705.024Z" fill="#4D61FC"/>
<path d="M1096.83 756.48C1107.41 756.48 1116 748.343 1116 738.304C1116 728.266 1107.41 720.128 1096.83 720.128C1086.25 720.128 1077.66 728.266 1077.66 738.304C1077.66 748.343 1086.25 756.48 1096.83 756.48Z" fill="#4D61FC"/>
<g opacity="0.3">
<path opacity="0.3" d="M1096.83 756.48C1107.41 756.48 1116 748.343 1116 738.304C1116 728.266 1107.41 720.128 1096.83 720.128C1086.25 720.128 1077.66 728.266 1077.66 738.304C1077.66 748.343 1086.25 756.48 1096.83 756.48Z" fill="white"/>
</g>
<g opacity="0.3">
<path opacity="0.3" d="M1120.86 705.024C1135.67 705.024 1147.68 693.639 1147.68 679.595C1147.68 665.55 1135.67 654.165 1120.86 654.165C1106.05 654.165 1094.04 665.55 1094.04 679.595C1094.04 693.639 1106.05 705.024 1120.86 705.024Z" fill="white"/>
</g>
<path d="M1079.73 715.349C1086.04 715.349 1091.16 710.497 1091.16 704.512C1091.16 698.527 1086.04 693.675 1079.73 693.675C1073.42 693.675 1068.3 698.527 1068.3 704.512C1068.3 710.497 1073.42 715.349 1079.73 715.349Z" fill="#4D61FC"/>
<path d="M1079.46 787.797C1086.97 787.797 1093.05 782.028 1093.05 774.912C1093.05 767.795 1086.97 762.027 1079.46 762.027C1071.95 762.027 1065.87 767.795 1065.87 774.912C1065.87 782.028 1071.95 787.797 1079.46 787.797Z" fill="#4D61FC"/>
<path d="M1152.18 768.512C1161.77 768.512 1169.55 761.138 1169.55 752.043C1169.55 742.947 1161.77 735.573 1152.18 735.573C1142.59 735.573 1134.81 742.947 1134.81 752.043C1134.81 761.138 1142.59 768.512 1152.18 768.512Z" fill="#4D61FC"/>
<path d="M1138.05 814.336H1093.14C1091.88 814.336 1090.89 815.275 1090.89 816.469C1090.89 817.664 1091.88 818.603 1093.14 818.603H1138.05C1139.31 818.603 1140.3 817.664 1140.3 816.469C1140.3 815.275 1139.31 814.336 1138.05 814.336Z" fill="#61656D"/>
<path d="M1094.04 679.595C1094.04 665.515 1106.1 654.165 1120.86 654.165V705.109C1106.01 705.024 1094.04 693.675 1094.04 679.595Z" fill="#4D61FC"/>
<path d="M1099.62 756.309C1089.27 757.76 1079.64 751.104 1077.84 741.291C1076.13 731.648 1082.79 722.432 1092.87 720.469L1099.62 756.309Z" fill="#4D61FC"/>
<path opacity="0.3" d="M1071.63 712.192C1067.13 708.011 1067.04 701.099 1071.54 696.832C1071.54 696.832 1071.63 696.747 1071.72 696.747L1087.74 712.277C1083.33 716.373 1076.13 716.373 1071.63 712.192Z" fill="black"/>
<path opacity="0.3" d="M1089.09 783.957C1083.78 789.077 1075.14 789.077 1069.83 784.043C1064.52 779.093 1064.43 770.987 1069.56 765.952L1089.36 783.616C1089.36 783.787 1089.27 783.872 1089.09 783.957Z" fill="black"/>
<path d="M1137.06 818.688H1097.82C1096.56 818.688 1095.57 817.749 1095.57 816.555C1095.57 815.36 1096.56 814.421 1097.82 814.421H1093.05C1091.79 814.421 1090.8 815.36 1090.8 816.555C1090.8 817.749 1091.79 818.688 1093.05 818.688H1093.95V819.371V850.859C1093.95 855.381 1097.82 859.136 1102.68 859.136H1116.36C1116.54 859.136 1116.63 859.136 1116.63 859.136C1110.51 859.136 1105.29 855.04 1104.12 849.408L1097.91 819.371H1136.97V818.688H1137.06Z" fill="#3F4249"/>
<path opacity="0.3" d="M1163.97 739.925C1163.88 739.84 1163.79 739.84 1163.79 739.755L1140.39 764.075L1140.48 764.16C1147.5 770.304 1158.57 769.877 1165.05 763.221C1171.44 756.48 1170.99 746.069 1163.97 739.925Z" fill="black"/>
<path d="M1161.09 309.931H934.56V306.005H1160.01L1161.09 309.931Z" fill="white"/>
<path d="M1163.16 316.843H934.56V312.917H1161.99L1163.16 316.843Z" fill="white"/>
<path d="M1165.14 323.755H934.56V319.829H1163.97L1165.14 323.755Z" fill="white"/>
<path d="M1167.21 330.667H934.56V326.741H1166.04L1167.21 330.667Z" fill="white"/>
<path d="M1169.19 337.579H934.56V333.653H1168.02L1169.19 337.579Z" fill="white"/>
<path d="M1171.17 344.491H934.56V340.48H1170L1171.17 344.491Z" fill="white"/>
<path d="M939.87 413.184H939.69V303.104H938.7V413.184H938.52C937.71 413.184 936.99 413.781 936.99 414.635V429.995C936.99 430.763 937.62 431.445 938.52 431.445H939.87C940.68 431.445 941.4 430.848 941.4 429.995V414.635C941.4 413.781 940.77 413.184 939.87 413.184Z" fill="white"/>
<path opacity="0.2" d="M722.97 501.077L731.52 581.035L738.99 588.032L745.83 583.765L730.89 506.965C729.36 500.651 722.97 500.139 722.97 501.077Z" fill="black"/>
<path opacity="0.2" d="M936.81 306.005H934.56V309.931H936.81V306.005Z" fill="black"/>
<path opacity="0.2" d="M936.81 312.917H934.56V316.843H936.81V312.917Z" fill="black"/>
<path opacity="0.2" d="M936.81 319.829H934.56V323.755H936.81V319.829Z" fill="black"/>
<path opacity="0.2" d="M936.81 326.741H934.56V330.667H936.81V326.741Z" fill="black"/>
<path opacity="0.2" d="M936.81 333.568H934.56V337.493H936.81V333.568Z" fill="black"/>
<path opacity="0.2" d="M936.81 340.48H934.56V344.405H936.81V340.48Z" fill="black"/>
<path opacity="0.2" d="M1085.76 309.931H1074.42V311.637H1085.76V309.931Z" fill="black"/>
<path opacity="0.2" d="M1085.76 316.843H1074.42V318.549H1085.76V316.843Z" fill="black"/>
<path opacity="0.2" d="M1085.76 323.755H1074.42V325.461H1085.76V323.755Z" fill="black"/>
<path opacity="0.2" d="M1085.76 330.667H1074.42V332.373H1085.76V330.667Z" fill="black"/>
<path opacity="0.2" d="M1085.76 337.579H1074.42V339.285H1085.76V337.579Z" fill="black"/>
<path opacity="0.2" d="M1085.76 344.491H1074.42V346.197H1085.76V344.491Z" fill="black"/>
<path d="M310.95 307.371H387.27L429.75 422.315H267.57L310.95 307.371Z" fill="#4D61FC"/>
<path d="M310.95 307.371H335.07L318.42 422.315H267.57L310.95 307.371Z" fill="#4D61FC"/>
<path d="M310.895 307.397H387.305V302.192H310.895V307.397Z" fill="#4D61FC"/>
<path d="M267.618 427.462H429.798V422.257H267.618V427.462Z" fill="#4D61FC"/>
<path opacity="0.4" d="M310.95 307.371H387.27L429.75 422.315H267.57L310.95 307.371Z" fill="white"/>
<path opacity="0.4" d="M329.85 307.371H387.27L429.75 422.315H311.58L329.85 307.371Z" fill="white"/>
<path opacity="0.6" d="M630.18 454.741C630.18 454.741 629.28 458.24 632.16 459.947C635.4 461.739 647.91 469.675 665.55 464.64C665.55 464.64 671.13 463.189 676.44 459.52C677.61 458.667 678.51 457.472 678.69 456.021C678.69 455.851 678.69 455.765 678.69 455.595V454.4C678.69 454.4 678.69 454.4 683.64 455.509C683.64 456.96 683.19 459.691 680.67 462.08C679.23 463.445 657.9 479.061 630.72 464.64C630.72 464.64 624.78 462.421 625.41 455.851C630.18 454.741 630.18 454.741 630.18 454.741Z" fill="black"/>
<path opacity="0.5" d="M626.13 276.821C629.46 271.616 631.35 265.557 631.35 259.072C631.35 240.043 615.15 224.683 595.08 224.683C594.09 224.683 593.1 224.768 592.11 224.768L626.13 276.821Z" fill="white"/>
<path opacity="0.5" d="M586.62 225.707C584.82 226.133 583.11 226.645 581.49 227.243L619.02 284.928C620.46 283.733 621.81 282.369 623.07 280.918L586.62 225.707Z" fill="white"/>
<path d="M698.4 578.731L711.18 580.352L738.45 578.048C741.33 578.304 742.59 578.816 744.75 580.608L761.58 594.859C762.66 595.797 762.75 597.333 761.85 598.357C760.95 599.381 759.33 599.637 758.16 598.784L742.23 587.691L752.58 599.296C753.75 600.576 753.21 602.624 751.5 603.221C750.51 603.563 749.52 603.307 748.8 602.709L734.94 589.824L745.47 599.637C746.73 600.832 746.28 602.795 744.66 603.392C743.85 603.733 742.95 603.563 742.32 603.136L727.56 592.896L737.55 599.893C738.72 600.661 738.72 602.368 737.55 603.136C736.92 603.563 736.11 603.648 735.48 603.392L722.07 598.101C720.81 597.589 719.28 597.589 718.02 598.187L712.89 600.576C708.75 602.539 704.07 603.563 699.48 603.563H691.11C679.14 603.563 698.4 578.731 698.4 578.731Z" fill="#FC9D9D"/>
<path opacity="0.15" d="M619.02 569.088L614.52 568.747C613.17 568.661 612.45 567.296 612.99 566.187L617.76 557.056L619.02 569.088Z" fill="black"/>
<path opacity="0.15" d="M737.55 600.32C737.46 600.32 737.37 600.32 737.28 600.235L728.1 593.835C727.92 593.664 727.83 593.408 728.01 593.237C728.19 593.067 728.46 592.981 728.64 593.152L737.82 599.552C738 599.723 738.09 599.979 737.91 600.149C737.82 600.235 737.64 600.32 737.55 600.32Z" fill="black"/>
<path opacity="0.15" d="M745.38 600.064C745.29 600.064 745.11 600.064 745.11 599.979L735.21 590.763C735.03 590.592 735.03 590.336 735.21 590.165C735.39 589.995 735.66 589.995 735.84 590.165L745.74 599.381C745.92 599.552 745.92 599.808 745.74 599.979C745.65 600.064 745.47 600.064 745.38 600.064Z" fill="black"/>
<path opacity="0.15" d="M725.04 596.565C728.1 598.016 733.23 600.491 735.03 601.429C737.55 602.795 738.27 601.003 738.27 601.003C738.45 601.771 738.18 602.624 737.46 603.136C736.83 603.563 736.02 603.648 735.39 603.392L721.98 598.101C720.72 597.589 719.19 597.589 717.93 598.187L720.54 596.736C721.98 595.968 723.6 595.968 725.04 596.565Z" fill="black"/>
<path d="M696.33 579.755L619.02 569.003L613.98 522.581L565.74 524.885L575.55 584.192C577.44 595.371 587.52 603.563 599.4 603.563H687.33L696.33 579.755Z" fill="#4D61FC"/>
<path d="M706.86 579.755L619.02 569.088L613.98 522.667L565.74 524.971L575.55 584.277C577.44 595.456 587.52 603.648 599.4 603.648H698.13L706.86 579.755Z" fill="#4D61FC"/>
<path d="M733.95 590.421L730.44 588.032L733.95 590.421Z" fill="#9A73EF"/>
<path opacity="0.6" d="M594.63 535.467C595.625 535.467 596.43 534.703 596.43 533.76C596.43 532.817 595.625 532.053 594.63 532.053C593.636 532.053 592.83 532.817 592.83 533.76C592.83 534.703 593.636 535.467 594.63 535.467Z" fill="black"/>
<path opacity="0.6" d="M698.13 578.731L706.86 579.755L698.22 603.563H687.42L698.13 578.731Z" fill="black"/>
<g opacity="0.2">
<path opacity="0.2" d="M699.03 578.133C698.94 578.475 698.67 578.645 698.4 578.645H698.31L618.93 567.723L618.75 566.357L698.49 577.365C698.85 577.451 699.12 577.792 699.03 578.133Z" fill="black"/>
</g>
<path d="M611.64 547.499C610.92 547.499 610.38 546.987 610.29 546.304L609.84 542.123C609.75 541.44 610.29 540.757 611.1 540.757C611.82 540.672 612.54 541.184 612.54 541.952L612.99 546.133C613.08 546.816 612.54 547.499 611.73 547.499C611.73 547.499 611.73 547.499 611.64 547.499Z" fill="white"/>
<path d="M578.07 561.408C577.8 561.408 577.44 561.323 577.17 561.067C576.63 560.64 576.54 559.787 576.99 559.275L579.6 556.288C580.05 555.776 580.95 555.691 581.49 556.117C582.03 556.544 582.12 557.397 581.67 557.909L579.06 560.896C578.79 561.237 578.43 561.408 578.07 561.408Z" fill="white"/>
<path d="M618.12 589.653C618.03 589.653 617.85 589.653 617.76 589.568L613.35 588.288C612.63 588.117 612.27 587.349 612.45 586.667C612.63 585.984 613.44 585.643 614.16 585.813L618.57 587.093C619.29 587.264 619.65 588.032 619.47 588.715C619.29 589.312 618.75 589.653 618.12 589.653Z" fill="white"/>
<path d="M656.55 590.933C656.28 590.933 655.92 590.848 655.74 590.677C655.2 590.251 655.11 589.397 655.56 588.885L658.35 585.643C658.8 585.131 659.7 585.045 660.24 585.472C660.78 585.899 660.87 586.752 660.42 587.264L657.63 590.507C657.27 590.763 656.91 590.933 656.55 590.933Z" fill="white"/>
<path opacity="0.6" d="M638.64 581.461C639.635 581.461 640.44 580.698 640.44 579.755C640.44 578.813 639.635 578.048 638.64 578.048C637.646 578.048 636.84 578.813 636.84 579.755C636.84 580.698 637.646 581.461 638.64 581.461Z" fill="black"/>
<path opacity="0.6" d="M671.31 600.235C672.304 600.235 673.11 599.471 673.11 598.528C673.11 597.586 672.304 596.821 671.31 596.821C670.316 596.821 669.51 597.586 669.51 598.528C669.51 599.471 670.316 600.235 671.31 600.235Z" fill="black"/>
<path opacity="0.6" d="M600.39 567.211C601.385 567.211 602.19 566.447 602.19 565.504C602.19 564.562 601.385 563.797 600.39 563.797C599.396 563.797 598.59 564.562 598.59 565.504C598.59 566.447 599.396 567.211 600.39 567.211Z" fill="black"/>
<path opacity="0.15" d="M699.66 599.296L698.22 603.477H599.49C587.61 603.477 577.44 595.285 575.64 584.107L561.51 498.347C559.08 482.987 569.43 468.395 585.36 464.811L593.73 462.933C580.95 468.309 573.21 481.195 575.37 494.677L588.42 573.696C590.31 584.875 600.39 593.067 612.27 593.067L699.66 599.296Z" fill="black"/>
<path opacity="0.15" d="M708.39 599.381C706.32 599.381 704.7 597.589 704.88 595.627L706.86 579.755L698.13 603.563H699.39C704.07 603.563 708.66 602.539 712.8 600.576L718.92 597.845C717.48 598.016 713.7 599.381 708.39 599.381Z" fill="black"/>
<path d="M686.16 602.88H774.9C775.62 602.88 776.25 603.477 776.25 604.16V606.293C776.25 606.976 775.62 607.573 774.9 607.573H686.16C685.44 607.573 684.81 606.976 684.81 606.293V604.16C684.81 603.477 685.35 602.88 686.16 602.88Z" fill="#21252B"/>
<path opacity="0.6" d="M686.16 602.88H774.9C775.62 602.88 776.25 603.477 776.25 604.16V606.293C776.25 606.976 775.62 607.573 774.9 607.573H686.16C685.44 607.573 684.81 606.976 684.81 606.293V604.16C684.81 603.477 685.35 602.88 686.16 602.88Z" fill="black"/>
<path d="M746.01 602.88H900.72C901.44 602.88 902.07 603.477 902.07 604.16V606.293C902.07 606.976 901.44 607.573 900.72 607.573H746.01C745.29 607.573 744.66 606.976 744.66 606.293V604.16C744.75 603.477 745.29 602.88 746.01 602.88Z" fill="#21252B"/>
<g opacity="0.6">
<path opacity="0.6" d="M898.74 603.733H741.24C740.97 603.733 740.79 603.563 740.79 603.307C740.79 603.051 740.97 602.88 741.24 602.88H898.74C899.01 602.88 899.19 603.051 899.19 603.307C899.19 603.563 898.92 603.733 898.74 603.733Z" fill="black"/>
</g>
<path d="M745.65 602.88H768.96C770.76 602.88 772.29 601.685 772.65 599.979L792.18 502.613C792.63 500.395 790.83 498.432 788.49 498.432H765.18C763.38 498.432 761.85 499.627 761.49 501.333L741.96 598.699C741.6 600.917 743.31 602.88 745.65 602.88Z" fill="#21252B"/>
<path opacity="0.6" d="M745.65 602.88H768.96C770.76 602.88 772.29 601.685 772.65 599.979L792.18 502.613C792.63 500.395 790.83 498.432 788.49 498.432H765.18C763.38 498.432 761.85 499.627 761.49 501.333L741.96 598.699C741.6 600.917 743.31 602.88 745.65 602.88Z" fill="black"/>
<path d="M748.98 602.88H898.65C900.45 602.88 901.98 601.685 902.34 599.979L921.87 502.613C922.32 500.395 920.52 498.432 918.18 498.432H768.6C766.8 498.432 765.27 499.627 764.91 501.333L745.38 598.699C744.93 600.917 746.64 602.88 748.98 602.88Z" fill="#21252B"/>
<path opacity="0.6" d="M834.48 547.925C833.58 549.888 834.57 551.595 836.64 551.595C836.73 551.595 836.91 551.595 837 551.595C834.57 554.155 830.88 555.947 827.64 555.861C823.23 555.776 821.16 552.363 823.14 548.181C825.03 544 830.25 540.757 834.66 540.843C837.45 540.928 839.34 542.293 839.79 544.427C837.72 544.512 835.38 545.963 834.48 547.925Z" fill="black"/>
<path d="M682.74 403.968C682.74 403.968 641.52 375.296 637.47 406.528L636.3 414.72L630.18 454.742V454.827L630.09 455.68C629.91 456.875 630.27 457.985 630.99 458.838V458.923L631.08 459.009C631.35 459.35 631.71 459.691 632.16 459.947C635.49 461.909 637.65 462.933 640.35 463.872C652.59 468.309 666.72 466.603 677.52 458.752C678.33 457.813 678.78 456.619 678.69 455.339L677.97 434.517C678.69 432.384 679.14 429.995 679.41 427.349C680.76 415.061 682.74 403.968 682.74 403.968Z" fill="#FC9D9D"/>
<path d="M687.42 406.187C695.522 406.187 702.09 399.96 702.09 392.277C702.09 384.596 695.522 378.368 687.42 378.368C679.318 378.368 672.75 384.596 672.75 392.277C672.75 399.96 679.318 406.187 687.42 406.187Z" fill="#21252B"/>
<path d="M689.31 382.208C689.31 382.208 699.93 444.245 666.54 446.037C637.65 447.659 637.83 405.248 637.83 405.248L641.34 377.941L689.31 382.208Z" fill="#FC9D9D"/>
<path d="M687.15 385.877H657.81C654.12 385.877 651.15 388.693 651.15 392.192C651.15 395.691 648.18 398.507 644.49 398.507C643.5 398.507 642.69 399.275 642.69 400.213V406.357C642.69 407.125 642.06 407.808 641.16 407.808C640.44 407.808 639.81 407.296 639.72 406.613L638.82 400.725L637.65 398.677L630.45 402.261C630.45 402.261 620.55 385.195 627.03 370.773C630.72 362.496 639.81 360.192 643.95 359.936C645.3 359.851 646.56 359.168 647.37 358.144C649.26 355.499 653.76 351.061 662.94 352.085C669.96 352.853 673.65 356.693 675.36 359.851C676.44 361.643 678.78 362.496 680.85 361.813C683.91 360.789 688.32 360.277 693.09 363.52C702.45 369.664 697.41 385.109 687.15 385.877Z" fill="#21252B"/>
<path opacity="0.15" d="M635.94 416.768C635.94 416.768 638.64 417.195 640.17 416.171L635.04 422.656L635.94 416.768Z" fill="black"/>
<path d="M638.82 400.64C638.82 400.64 637.11 394.752 630.63 396.971C623.25 399.445 623.43 415.061 635.58 416.768C641.97 417.707 640.89 414.123 640.17 409.344C638.82 400.64 638.82 400.64 638.82 400.64Z" fill="#FC9D9D"/>
<path opacity="0.3" d="M630 400.896C631.26 400.213 632.52 399.957 633.6 400.299C634.68 400.64 635.58 401.408 636.21 402.603C636.84 403.883 637.2 405.333 637.11 406.869V408.235C637.11 408.661 636.75 408.917 636.3 408.917C635.85 408.917 635.58 408.576 635.58 408.149V406.784C635.67 406.443 635.49 404.395 634.86 403.2C634.41 402.347 633.78 401.749 633.15 401.579C632.52 401.408 631.71 401.579 630.72 402.091C630.36 402.261 629.91 402.176 629.73 401.835C629.55 401.579 629.64 401.152 630 400.896Z" fill="black"/>
<path d="M687.24 387.158L683.82 387.244C683.46 387.244 683.1 386.988 683.1 386.646C683.1 386.305 683.37 385.964 683.73 385.964L687.15 385.878C687.6 385.878 688.05 385.793 688.41 385.708C689.22 385.537 690.84 385.025 692.46 384.172C692.82 384.001 693.18 384.086 693.36 384.428C693.54 384.769 693.45 385.11 693.09 385.281C691.38 386.22 689.58 386.732 688.68 386.902C688.32 387.073 687.78 387.158 687.24 387.158Z" fill="#FC9D9D"/>
<path opacity="0.15" d="M678.69 451.84L678.33 441.941C675.36 444.501 667.08 447.829 658.35 445.184C658.35 445.184 658.26 445.099 658.35 445.184C652.95 443.477 649.44 440.32 647.37 437.589C647.19 437.333 646.74 437.248 646.47 437.419C646.2 437.589 646.11 438.016 646.29 438.272C648.9 441.6 653.49 445.611 660.87 447.061C669.6 453.547 678.69 451.84 678.69 451.84Z" fill="black"/>
<g opacity="0.3">
<path opacity="0.3" d="M670.05 433.835H669.96C667.35 433.835 666 433.835 666 433.835C665.55 433.835 665.1 433.493 665.1 432.981C665.1 432.555 665.46 432.128 666 432.128C666 432.128 667.35 432.128 669.96 432.128C670.41 432.128 670.86 432.469 670.86 432.981C670.77 433.408 670.41 433.749 670.05 433.835Z" fill="black"/>
</g>
<g opacity="0.3">
<path opacity="0.3" d="M671.67 430.336C664.38 430.848 661.41 426.923 660.42 424.96C660.24 424.533 660.42 424.107 660.78 423.936C661.23 423.765 661.68 423.936 661.86 424.277C662.85 426.155 666.09 430.336 675 428.203C675.45 428.117 675.9 428.373 675.99 428.8C676.08 429.227 675.81 429.653 675.36 429.739C674.1 430.08 672.84 430.251 671.67 430.336Z" fill="black"/>
</g>
<path d="M663.3 413.269C664.742 413.269 665.91 412.162 665.91 410.795C665.91 409.428 664.742 408.32 663.3 408.32C661.858 408.32 660.69 409.428 660.69 410.795C660.69 412.162 661.858 413.269 663.3 413.269Z" fill="#21252B"/>
<path d="M664.56 411.905C664.859 411.905 665.1 411.675 665.1 411.392C665.1 411.11 664.859 410.88 664.56 410.88C664.262 410.88 664.02 411.11 664.02 411.392C664.02 411.675 664.262 411.905 664.56 411.905Z" fill="white"/>
<path d="M684.18 414.805C685.621 414.805 686.79 413.698 686.79 412.331C686.79 410.964 685.621 409.856 684.18 409.856C682.738 409.856 681.57 410.964 681.57 412.331C681.57 413.698 682.738 414.805 684.18 414.805Z" fill="#21252B"/>
<path d="M685.44 413.355C685.738 413.355 685.98 413.126 685.98 412.843C685.98 412.56 685.738 412.331 685.44 412.331C685.142 412.331 684.9 412.56 684.9 412.843C684.9 413.126 685.142 413.355 685.44 413.355Z" fill="white"/>
<g opacity="0.3">
<path opacity="0.3" d="M674.1 424.363H670.5C670.05 424.363 669.69 424.022 669.69 423.596C669.69 423.169 670.05 422.828 670.5 422.828H674.1C675 422.828 675.72 422.145 675.72 421.291C675.72 420.438 675 419.756 674.1 419.756C673.65 419.756 673.29 419.414 673.29 418.988C673.29 418.561 673.65 418.22 674.1 418.22C675.81 418.22 677.25 419.585 677.25 421.206C677.25 422.998 675.9 424.363 674.1 424.363Z" fill="black"/>
</g>
<path d="M692.28 406.272L680.76 405.504L679.23 405.419L669.15 404.736H669.06L656.1 403.883C654.03 403.712 652.14 405.248 652.05 407.211L651.87 410.027C651.51 415.403 655.74 420.181 661.5 420.523C667.17 420.864 672.21 416.853 672.57 411.392L672.75 408.576C672.84 407.723 672.57 406.955 672.12 406.357L676.17 406.613C675.63 407.211 675.27 407.893 675.18 408.747L675 411.563C674.64 416.939 678.87 421.717 684.63 422.059C690.3 422.4 695.34 418.389 695.7 412.928L695.88 410.112C695.97 408.235 694.35 406.443 692.28 406.272ZM671.13 408.576L670.95 411.392C670.59 416 666.36 419.499 661.5 419.157C656.64 418.816 652.95 414.805 653.31 410.197L653.49 407.381C653.58 406.187 654.66 405.248 655.92 405.333L668.88 406.187H668.97C670.23 406.272 671.22 407.381 671.13 408.576ZM694.08 412.843C693.72 417.451 689.49 420.949 684.63 420.608C679.77 420.267 676.08 416.256 676.44 411.648L676.62 408.832C676.71 407.637 677.79 406.699 679.05 406.784L680.58 406.869L692.1 407.637C693.36 407.723 694.35 408.747 694.26 409.941L694.08 412.843Z" fill="#21252B"/>
<path d="M549.99 859.136H617.49V587.349C617.49 581.973 612.9 577.621 607.23 577.621H560.25C554.58 577.621 549.99 581.973 549.99 587.349V859.136Z" fill="#B2B6BB"/>
</svg>
