<svg width="1440" height="1024" viewBox="0 0 1440 1024" fill="none" xmlns="http://www.w3.org/2000/svg">
<g filter="url(#filter0_b_83_373)">
<path d="M1215.14 977.085H108.44L54.3403 463.186C52.3403 444.486 59.2403 425.986 72.8403 413.086L292.44 204.785C302.24 195.485 314.84 189.785 328.24 188.485L977.84 126.286C999.34 124.186 1020.24 133.786 1032.74 151.286L1205.14 393.086C1212.44 403.385 1216.34 415.685 1216.34 428.285L1215.14 977.085Z" fill="#F4F4F4"/>
<path d="M1004.7 442.3C1005 439.3 1005.2 436.3 1005.5 433.2C1005.3 436.3 1005 439.3 1004.7 442.3Z" fill="white"/>
<path d="M1011.4 360.9C1011.6 358.4 1011.8 355.9 1011.9 353.4C1011.8 355.9 1011.6 358.3 1011.4 360.9Z" fill="white"/>
<path d="M1007.5 410.9C1007.7 407.9 1008 405 1008.2 402.1C1008 405 1007.7 407.9 1007.5 410.9Z" fill="white"/>
<path d="M998.1 508.2C998.6 504.1 999 499.9 999.5 495.6C999 499.9 998.6 504.1 998.1 508.2Z" fill="white"/>
<path d="M1010.6 372.6C1010.9 368.6 1011.2 364.7 1011.5 360.9C1011.2 364.7 1010.9 368.6 1010.6 372.6Z" fill="white"/>
<path d="M1009.3 389.2C1009.5 386.4 1009.7 383.6 1010 380.8C1009.7 383.5 1009.5 386.3 1009.3 389.2Z" fill="white"/>
<path d="M1064.2 356.6C1065.6 327.1 1062.6 306.5 1062.6 306.5H1062.7L1059.5 305.1L1055.4 306L1027.6 312.2L1018.7 299.2L1014.9 298.8L1018.1 299.2C1018.5 314.7 1026.9 408.4 1010.3 528H1064.1C1057 474.2 1061 415.6 1062.6 371.4L1064.2 356.6Z" fill="white"/>
<path d="M1000.4 487C1000.7 484.1 1001 481.2 1001.3 478.2C1001 481.2 1000.7 484.1 1000.4 487Z" fill="white"/>
<path d="M1002.6 464.9C1003 460.4 1003.5 455.9 1003.9 451.4C1003.5 455.9 1003 460.4 1002.6 464.9Z" fill="white"/>
<path d="M1001.3 478.3C1001.6 475.4 1001.9 472.4 1002.2 469.4C1001.9 472.3 1001.6 475.3 1001.3 478.3Z" fill="white"/>
<path d="M1006.7 419.8C1007 416.8 1007.2 413.8 1007.5 410.9C1007.2 413.8 1007 416.8 1006.7 419.8Z" fill="white"/>
<path d="M1005.5 433.3C1005.9 428.8 1006.3 424.3 1006.7 419.8C1006.3 424.2 1005.9 428.7 1005.5 433.3Z" fill="white"/>
<path d="M1018.2 299.2L1015 298.8C1015.1 304.5 1014 325.3 1012 353.3C1011.8 355.7 1011.6 358.2 1011.5 360.8C1011.2 364.6 1010.9 368.5 1010.6 372.5C1010.4 375.2 1010.2 377.9 1010 380.7C1009.8 383.5 1009.6 386.2 1009.3 389.1C1009 393.3 1008.6 397.6 1008.3 402C1008.1 404.9 1007.8 407.8 1007.6 410.8C1007.4 413.8 1007.1 416.7 1006.8 419.7C1006.4 424.2 1006 428.7 1005.6 433.2C1005.3 436.2 1005.1 439.2 1004.8 442.3C1004.5 445.3 1004.2 448.3 1004 451.4C1003.6 455.9 1003.1 460.4 1002.7 464.9C1002.6 466.4 1002.4 467.9 1002.3 469.4C1002 472.4 1001.7 475.3 1001.4 478.3C1001.1 481.2 1000.8 484.2 1000.5 487.1C1000.2 490 999.9 492.9 999.6 495.7C999.1 500 998.7 504.2 998.2 508.3C997.4 515.2 996.7 521.8 995.9 528.1H1010.5C1027 408.5 1018.6 314.7 1018.2 299.2Z" fill="white"/>
<path opacity="0.15" d="M1015.5 309.4L1015 298.9C1015.1 304.6 1014 325.4 1012 353.4C1011.8 355.8 1011.6 358.3 1011.5 360.9C1011.2 364.7 1010.9 368.6 1010.6 372.6C1010.4 375.3 1010.2 378 1010 380.8C1009.8 383.6 1009.6 386.3 1009.3 389.2C1009 393.4 1008.6 397.7 1008.3 402.1C1008.1 405 1007.8 407.9 1007.6 410.9C1007.4 413.9 1007.1 416.8 1006.8 419.8C1006.4 424.3 1006 428.8 1005.6 433.3C1005.3 436.3 1005.1 439.3 1004.8 442.4C1004.5 445.4 1004.2 448.4 1004 451.5C1003.6 456 1003.1 460.5 1002.7 465C1002.6 466.5 1002.4 468 1002.3 469.5C1002 472.5 1001.7 475.4 1001.4 478.4C1001.1 481.3 1000.8 484.3 1000.5 487.2C1000.2 490.1 999.9 493 999.6 495.8C999.1 500.1 998.7 504.3 998.2 508.4C997.4 515.3 996.7 521.9 995.9 528.2H1010.5C1027 408.5 1015.9 324.8 1015.5 309.4Z" fill="black"/>
<path d="M964.6 528L973 884.4H1006.5L1025.2 574.4C1025.4 570.8 1028.4 568 1032 568C1035.6 568 1038.6 570.8 1038.8 574.5L1055.8 884.4H1089.3L1099.6 528H964.6Z" fill="#21252B"/>
<g opacity="0.5">
<path opacity="0.5" d="M964.6 528L963.5 538.6H1099.2L1099.6 528H964.6Z" fill="black"/>
</g>
<path opacity="0.3" d="M973.9 528L972.3 564.4H994.3C1000.1 564.4 1005.3 560.4 1006.3 554.7C1007.8 545.7 1009.1 536.8 1010.4 528.1H973.9V528Z" fill="black"/>
<path d="M976.5 905.4L975.6 876.2H1004L1002.7 906.3L976.5 905.4Z" fill="#FC9D9D"/>
<path opacity="0.15" d="M1003.7 884.4L1002.8 906.3L996 906.1L996.2 893.2C996.2 891.1 994.8 889.3 992.8 888.8L975.8 884.4H1003.7Z" fill="black"/>
<path d="M1085.5 905.4L1086.4 876.2H1057.9L1059.2 906.3L1085.5 905.4Z" fill="#FC9D9D"/>
<path d="M1014.9 260.3L1015.2 301.5C1015.2 302.5 1015.5 303.5 1016.1 304.3L1016.5 305C1026.5 319.9 1047.1 322.8 1060.9 311.4C1062.3 310.2 1063 308.4 1062.7 306.6L1055.2 257L1014.9 260.3Z" fill="#FC9D9D"/>
<path d="M1059.6 239.9C1059.6 239.9 1067.8 294.1 1037.9 296.3C1008.7 298.5 1007.8 243.7 1007.8 243.7L1007 228L1044.6 221.4L1054.1 226.3L1059.6 239.9Z" fill="#FC9D9D"/>
<path opacity="0.15" d="M1060.3 291.8L1058.1 276.9C1055.4 286.5 1049.8 294.5 1040 296.1H1040.1C1039.4 296.2 1038.7 296.3 1038 296.4C1030.2 297 1023.7 293.4 1018.8 285.7C1018.6 285.4 1018.2 285.3 1017.9 285.5C1017.6 285.7 1017.5 286.1 1017.7 286.4C1022.9 294.6 1029.8 298.4 1038.1 297.8C1039.9 297.7 1041.6 297.3 1043.2 296.8C1048.5 297.4 1054.6 296.1 1060.3 291.8Z" fill="black"/>
<path d="M1052.5 227.8C1052.5 227.8 1062 221.5 1066.5 232.3C1070.3 241.4 1063.9 251.3 1063.9 251.3L1058.4 250.7C1056.1 250.6 1054.5 249.5 1054.3 247.3L1052.5 227.8Z" fill="#21252B"/>
<path d="M1059.3 221.2C1060.1 231.5 1051.3 234.2 1047.7 234.5L1018.2 237C1015.8 237.2 1014 239.3 1014.1 241.7L1014.6 251.1C1014.7 252.4 1013.8 253.5 1012.5 253.7L1010.7 253.9L1008.7 256.4C997.1 253.6 992.3 220.7 1013.6 214.1C1015.8 213.4 1017.9 211.7 1018.9 209.6C1022 203.2 1034.7 201.5 1041.1 208.7C1042.5 210.3 1044.1 210.9 1046.2 210.9C1053.9 210.7 1058.9 215.5 1059.3 221.2Z" fill="#21252B"/>
<path d="M1010.8 257.1C1010.4 253.3 1005.9 251.3 1002.9 253.8L1002.8 253.9C997.7 258.3 1001 272.1 1012.2 270.9L1010.8 257.1Z" fill="#FC9D9D"/>
<path d="M1066.5 249.8L1066.4 249.7C1063.1 247.7 1059 250.3 1059.1 254.1L1059.7 267.3C1071 266.9 1072.1 253.4 1066.5 249.8Z" fill="#FC9D9D"/>
<path d="M1012.2 258.8C1012.3 259.5 1011.7 260.1 1011 260.2C1010.3 260.3 1009.6 259.8 1009.5 259.2L1008.2 250.3L1011.9 250.4L1012.2 258.8Z" fill="#21252B"/>
<path d="M1061.4 255.2C1061.5 255.9 1060.9 256.5 1060.2 256.6C1059.5 256.7 1058.8 256.2 1058.7 255.6L1057.4 246.7L1061.1 246.8L1061.4 255.2Z" fill="#21252B"/>
<path d="M1047.9 235.8C1047 235.9 1046.5 235.8 1046.4 235.8C1046.1 235.8 1045.8 235.5 1045.8 235.1C1045.8 234.8 1046.1 234.5 1046.5 234.5C1046.6 234.5 1052.5 234.8 1055 230.9C1055.2 230.6 1055.6 230.5 1055.9 230.7C1056.2 230.9 1056.3 231.3 1056.1 231.6C1053.9 234.9 1050 235.7 1047.9 235.8Z" fill="#FC9D9D"/>
<path d="M1025.7 264.8C1027.14 264.8 1028.3 263.636 1028.3 262.2C1028.3 260.764 1027.14 259.6 1025.7 259.6C1024.26 259.6 1023.1 260.764 1023.1 262.2C1023.1 263.636 1024.26 264.8 1025.7 264.8Z" fill="#21252B"/>
<path d="M1024.5 262.5C1024.83 262.5 1025.1 262.232 1025.1 261.9C1025.1 261.569 1024.83 261.3 1024.5 261.3C1024.17 261.3 1023.9 261.569 1023.9 261.9C1023.9 262.232 1024.17 262.5 1024.5 262.5Z" fill="white"/>
<path d="M1045.7 263.3C1047.14 263.3 1048.3 262.136 1048.3 260.7C1048.3 259.264 1047.14 258.1 1045.7 258.1C1044.26 258.1 1043.1 259.264 1043.1 260.7C1043.1 262.136 1044.26 263.3 1045.7 263.3Z" fill="#21252B"/>
<path d="M1044.5 261.1C1044.83 261.1 1045.1 260.831 1045.1 260.5C1045.1 260.169 1044.83 259.9 1044.5 259.9C1044.17 259.9 1043.9 260.169 1043.9 260.5C1043.9 260.831 1044.17 261.1 1044.5 261.1Z" fill="white"/>
<g opacity="0.3">
<path opacity="0.3" d="M1037 274.5L1039.1 274.3C1039.5 274.3 1039.8 273.9 1039.8 273.5C1039.8 273.1 1039.4 272.8 1039 272.8L1036.9 273C1036 273.1 1035.3 272.4 1035.2 271.5C1035.1 270.6 1035.8 269.9 1036.7 269.8C1037.1 269.8 1037.4 269.4 1037.4 269C1037.4 268.6 1037 268.3 1036.6 268.3C1034.9 268.4 1033.6 269.9 1033.8 271.6C1033.8 273.4 1035.3 274.6 1037 274.5Z" fill="black"/>
</g>
<path d="M1052.9 253.8L1041.6 254.4L1040.1 254.5L1030.2 255.1H1030.1L1017.4 255.8C1015.3 255.9 1013.8 257.7 1013.9 259.8L1014.1 262.7C1014.4 268.3 1019.2 272.6 1024.8 272.3C1030.4 272 1034.7 267.2 1034.4 261.6L1034.2 258.7C1034.2 257.9 1033.8 257.1 1033.3 256.5L1037.2 256.3C1036.8 257 1036.5 257.7 1036.6 258.6L1036.8 261.5C1037.1 267.1 1041.9 271.4 1047.5 271.1C1053.1 270.8 1057.4 266 1057.1 260.4L1056.9 257.5C1056.8 255.2 1055 253.7 1052.9 253.8ZM1032.7 258.7L1032.9 261.6C1033.2 266.4 1029.5 270.5 1024.8 270.7C1020 271 1015.9 267.3 1015.7 262.6L1015.5 259.7C1015.4 258.5 1016.4 257.4 1017.6 257.3L1030.3 256.6H1030.4C1031.6 256.5 1032.7 257.4 1032.7 258.7ZM1055.6 260.3C1055.9 265.1 1052.2 269.2 1047.5 269.4C1042.7 269.7 1038.6 266 1038.4 261.3L1038.2 258.4C1038.1 257.2 1039.1 256.1 1040.3 256L1041.8 255.9L1053.1 255.3C1054.3 255.2 1055.4 256.2 1055.5 257.4L1055.6 260.3Z" fill="#21252B"/>
<path d="M1030.6 278.6L1043.3 277.7C1043.6 277.7 1043.9 278 1043.8 278.3C1042 284.8 1033.1 285.5 1030.3 279.4V279.3C1030.1 279 1030.3 278.6 1030.6 278.6Z" fill="white"/>
<g opacity="0.3">
<path opacity="0.3" d="M1008 264.3C1007.6 264.3 1007.3 264 1007.2 263.6L1007 262C1006.8 260.3 1006.3 259.1 1005.6 258.5C1005 258 1004.4 258.1 1004.4 258.1C1004 258.2 1003.6 257.9 1003.5 257.5C1003.4 257.1 1003.7 256.7 1004.1 256.6C1004.2 256.6 1005.3 256.4 1006.5 257.2C1007.6 258 1008.3 259.6 1008.5 261.7L1008.7 263.3C1008.7 263.8 1008.4 264.2 1008 264.3Z" fill="black"/>
</g>
<g opacity="0.3">
<path opacity="0.3" d="M1063 260.2C1063.4 260.2 1063.7 259.8 1063.7 259.4V257.8C1063.6 256.1 1063.9 254.9 1064.6 254.2C1065.1 253.6 1065.7 253.6 1065.8 253.6C1066.2 253.6 1066.5 253.3 1066.6 252.9C1066.6 252.5 1066.3 252.2 1065.9 252.1C1065.8 252.1 1064.6 252.1 1063.7 253.1C1062.7 254.1 1062.3 255.7 1062.4 257.9V259.5C1062.2 259.9 1062.5 260.2 1063 260.2Z" fill="black"/>
</g>
<path d="M1002.7 931.8V906.3C1002.7 898.6 996.4 892.3 988.7 892.3H988.1C981.8 892.3 976.3 896.7 975.1 902.9C974.4 906.6 972.7 910 970.3 912.8L966.3 917.5C962.9 921.5 961 926.6 961 931.8H1002.7Z" fill="#5064FF"/>
<path d="M978.6 905.9C978.4 905.9 978.2 905.8 978.1 905.6C978 905.3 978 905 978.3 904.9C986.5 900.3 993.7 904.9 993.7 904.9C993.9 905.1 994 905.4 993.8 905.6C993.6 905.8 993.3 905.9 993.1 905.7C993 905.7 986.4 901.4 978.8 905.7C978.8 905.9 978.7 905.9 978.6 905.9Z" fill="white"/>
<path d="M976.9 909.5C976.7 909.5 976.5 909.4 976.4 909.2C976.3 908.9 976.3 908.6 976.6 908.5C984.8 903.9 992 908.5 992 908.5C992.2 908.7 992.3 909 992.1 909.2C991.9 909.4 991.6 909.5 991.4 909.3C991.3 909.3 984.7 905 977.1 909.3C977.1 909.5 977 909.5 976.9 909.5Z" fill="white"/>
<path d="M975.1 913.3C974.9 913.3 974.7 913.2 974.6 913C974.5 912.7 974.5 912.4 974.8 912.3C983 907.7 990.2 912.3 990.2 912.3C990.4 912.5 990.5 912.8 990.3 913C990.1 913.2 989.8 913.3 989.6 913.1C989.5 913.1 982.9 908.8 975.3 913.1C975.2 913.3 975.1 913.3 975.1 913.3Z" fill="white"/>
<path d="M962.8 937.1H1000.9C1001.9 937.1 1002.7 936.3 1002.7 935.3V931.9H961V935.3C961 936.3 961.8 937.1 962.8 937.1Z" fill="#3F4249"/>
<path d="M972.3 884.4L972 872.8H1008L1007.3 884.4H972.3Z" fill="#5064FF"/>
<path d="M1008 872.8L1007.3 884.4H972.3L972 872.8H1008Z" fill="#5064FF"/>
<path d="M1134.7 353.2C1132.3 342.4 1124.9 333.4 1114.8 329L1062.7 306.4H1062.6C1062.6 306.4 1062.7 306.9 1062.6 308C1062.6 308.4 1062.4 309 1062.3 309.6C1061.7 316.3 1060.4 332.8 1059.4 355.1C1059.2 359.5 1059 364.2 1058.8 369.1C1057.3 411.1 1057.1 500.8 1063.1 555.8C1063.6 560.6 1067.7 564.1 1072.4 564.1H1099.4L1101 488.4L1102.6 411.6L1103.9 416.3L1146.1 406.4L1134.7 353.2Z" fill="#5064FF"/>
<g opacity="0.15">
<path opacity="0.15" d="M1118.1 345.6L1133 409.8L1146.5 406.6L1134.8 353.2C1132.4 342.4 1125 333.4 1114.9 329L1103 323.8C1110.6 328.8 1116.1 336.6 1118.1 345.6Z" fill="black"/>
<path opacity="0.15" d="M1091.1 377.5L1078.4 564.4H1099.6L1102.9 411.9L1093.2 377.3C1092.9 376.1 1091.2 376.3 1091.1 377.5Z" fill="black"/>
</g>
<path d="M1015 298.9L980.6 295C968.1 293.6 955.4 295.9 944.3 301.7L897.8 325.6L928.5 358.2L956.8 352L958.4 364.4C965 414.2 967.2 464.5 964.9 514.8L962.7 564.5H984.7C990.5 564.5 995.5 560.5 996.7 554.8C1015.8 464.6 1015.4 314.3 1015 298.9Z" fill="#5064FF"/>
<path d="M1155 445.7L1146.5 406.6L1104.3 416.5L1112.7 441.2L1042.1 456.9L1038.2 457.7C1036.9 458 1035.7 458.1 1034.8 457.2L1033.3 455.7C1031.9 454.6 1030.3 453.7 1028.5 453.2C1024.3 452 1020.8 449.1 1018.7 445.4L1015.3 439.4C1015.1 439.1 1014.8 439 1014.5 439.2L1013.9 439.4C1011.4 440.3 1010.2 443 1010.9 445.5L1013.5 453.7C1013.8 454.6 1013.3 455.6 1012.4 455.9L995.8 462.7C992.3 464 993.5 468.8 996.7 468C998.4 467.6 998.8 467.5 998.8 467.5L995.5 469.2C991.8 471 993.5 476 996.7 475.3C999.8 474.6 1004.1 473.5 1004.1 473.5L1000 475.1C997 476.5 998.2 481.7 1002.3 480.7C1004.7 480.1 1008.5 478.9 1008.5 478.9L1006 480.1C1002.8 481.1 1003.9 486.1 1006.9 485.5C1009.5 485 1033.9 479 1046.5 476.7L1140 466.5C1150.2 465.6 1157.2 455.8 1155 445.7Z" fill="#FC9D9D"/>
<path d="M897.7 325.5L850.9 350.1C835.3 358.3 841.1 381.9 858.8 381.9H948.1L965.4 363.7L927.2 358.3L929.4 357.8" fill="#FC9D9D"/>
<path d="M949.5 369.2L961.2 363.2L988.8 367.1C991.1 367.5 993.2 368.6 994.7 370.3L1000.8 377.9C1002.3 379.6 1003.4 381.6 1003.8 383.9L1006.7 396C1006.9 397.4 1006.7 398.7 1005.4 399C1004.1 399.3 1002.9 398.7 1002.4 397.4L998 385L990.2 376.4L997.3 387.7L1001.3 403.4C1001.6 404.7 1000.9 406.1 999.7 406.6C998.2 407.2 996.5 406.4 996 404.9C994.7 400.8 992.6 393.8 992.6 393.8L984.2 380.7L992.6 393.8L996.3 401.7C996.9 402.9 996.4 404.4 995.2 405C994 405.7 992.4 405.3 991.7 404.2C989.8 401.3 985.8 396 985.8 396L978.1 385.8L986.4 398.3C986.9 399.1 986.7 400.2 986 400.8C985.3 401.4 984.2 401.3 983.6 400.6L976 392.4C974.9 391.3 973.5 390.5 972 390.1C966.6 388.9 961.6 386.3 957.5 382.5L956.9 381.9H948L949.5 369.2Z" fill="#FC9D9D"/>
<path d="M1014.9 331.1L1015.1 293L1007.8 298.1L993 335.1L1014.9 331.1Z" fill="#5064FF"/>
<path opacity="0.15" d="M993.9 334.4L1007.8 298.1L1006.5 297.9L992.1 335.8L1014.7 337.7L1014.9 331.1L993.9 334.4Z" fill="black"/>
<path d="M1061.7 299.7L1069.4 309.4L1078.1 346.7L1060.8 336.9L1062.4 311.3L1062.5 310.8C1062.8 309.4 1062.9 308 1062.8 306.6L1061.7 299.7Z" fill="#5064FF"/>
<path opacity="0.2" d="M1070.9 310L1069.3 309.4L1077.7 346.1L1060.7 336.8L1060.1 344.4L1079.3 348L1070.9 310Z" fill="black"/>
<path opacity="0.15" d="M1140 466.9L1046.5 477.1C1033.9 479.4 1009.5 485.4 1006.9 485.9C1005.2 486.2 1004.1 484.8 1004 483.3C1004 483.3 1004.7 484.5 1006.6 483.9C1007.6 483.6 1022.6 478.1 1032.1 474.5C1037.2 472.6 1042.5 471.2 1047.9 470.3C1068.3 466.9 1121.4 457.9 1135.7 454.7C1139.9 453.8 1142.5 449.6 1141.5 445.5L1133.3 409.9L1146.6 406.8L1155.1 445.9C1157.2 455.8 1150.2 465.6 1140 466.9Z" fill="black"/>
<path d="M1133.1 409.8L1146.4 406.7L1133.1 409.8Z" fill="#5064FF"/>
<path opacity="0.15" d="M918.5 346.8L929.4 357.9L956.8 351.9L954.8 340.5C954.3 337.6 951.3 335.8 948.5 336.8L918.5 346.8Z" fill="black"/>
<path opacity="0.15" d="M929.4 357.9L918.5 346.8L899.8 353L879.9 350.1C879.6 350 879.3 350.3 879.2 350.6C879.2 350.9 879.4 351.2 879.7 351.3L913.7 356.2L927.2 358.4L929.4 357.9Z" fill="black"/>
<g opacity="0.15">
<path opacity="0.15" d="M983.7 400.6C984.3 401.3 985.4 401.4 986.1 400.8C986.9 400.2 987.1 399.1 986.5 398.3L978.8 386.8C977.9 387.3 977.5 388.6 976.7 389C975.5 389.6 974.1 389.3 973.3 389.6C972.5 389.9 972 390.1 972 390.1C973.5 390.4 974.9 391.2 976 392.4L983.7 400.6Z" fill="black"/>
<path opacity="0.15" d="M1001.3 403.5L997.3 387.8L990.2 376.5L998 385.1L1002.5 397.5C1003 398.8 1004.2 399.5 1005.5 399.1C1006.7 398.8 1007 397.5 1006.8 396.1L1003.9 384C1003.5 381.8 1002.4 379.7 1000.9 378L994.8 370.4C994.3 369.8 993.7 369.4 993.1 368.9C993.1 370.7 993.3 372 992.7 373.3C992.2 374.5 991.2 375.4 990.1 376.5C989.1 377.5 989.3 379.5 988.4 380.5C987.9 381.1 985.9 381.6 985.3 382.1C984 383.1 983.7 384.7 982.7 385.4C981.7 386.2 980.2 386.1 979 386.8L986 396C986 396 989.9 401.3 991.9 404.2C992.7 405.4 994.2 405.7 995.4 405C995.6 404.9 995.8 404.7 996 404.5C996 404.6 996.1 404.8 996.1 404.9C996.6 406.4 998.3 407.2 999.8 406.6C1001 406.1 1001.6 404.8 1001.3 403.5Z" fill="black"/>
</g>
<g opacity="0.15">
<path opacity="0.15" d="M995.9 405.1C995.8 405.1 995.6 405.1 995.5 405C995.3 404.8 995.2 404.4 995.4 404.2C996.1 403.4 995.7 402 995.7 402L991.3 392.8L984.9 383C984.7 382.7 984.8 382.4 985.1 382.2C985.4 382 985.7 382.1 985.9 382.4L992.4 392.2L996.8 401.6C996.9 401.8 997.5 403.7 996.3 405C996.3 405 996.1 405.1 995.9 405.1Z" fill="black"/>
</g>
<path opacity="0.4" d="M1032 568C1028.4 568 1025.4 570.8 1025.2 574.4L1007.2 872.8H996.5L1000.8 587.8C1001 576.8 1009.9 568 1020.9 568H1032Z" fill="black"/>
<path opacity="0.2" d="M1007.3 884.4L1008 872.8H996.5L996.3 884.4H1007.3Z" fill="black"/>
<path opacity="0.15" d="M1086.1 884.4L1085.5 905.4L1073.6 905.8L1073.8 891.6C1073.8 890.3 1073 889 1071.7 888.6L1058.3 884.3H1086.1V884.4Z" fill="black"/>
<path opacity="0.4" d="M1098.6 564.4L1089.3 884.4H1086.1L1086.4 876.2H1074L1078.4 564.4H1098.6Z" fill="black"/>
<path d="M1059.2 931.8V906.3C1059.2 898.6 1065.5 892.3 1073.2 892.3H1073.8C1080.1 892.3 1085.6 896.7 1086.8 902.9C1087.5 906.6 1089.2 910 1091.6 912.8L1095.6 917.5C1099 921.5 1100.9 926.6 1100.9 931.8H1059.2Z" fill="#5064FF"/>
<path d="M1083.4 905.9C1083.3 905.9 1083.2 905.9 1083.1 905.8C1075.4 901.5 1068.8 905.7 1068.8 905.8C1068.6 906 1068.2 905.9 1068.1 905.7C1067.9 905.5 1068 905.1 1068.2 905C1068.3 905 1075.4 900.3 1083.6 905C1083.9 905.1 1083.9 905.5 1083.8 905.7C1083.7 905.8 1083.5 905.9 1083.4 905.9Z" fill="white"/>
<path d="M1085 909.5C1084.9 909.5 1084.8 909.5 1084.7 909.4C1077 905.1 1070.4 909.3 1070.4 909.4C1070.2 909.6 1069.8 909.5 1069.7 909.3C1069.5 909.1 1069.6 908.7 1069.8 908.6C1069.9 908.6 1077 903.9 1085.2 908.6C1085.5 908.7 1085.5 909.1 1085.4 909.3C1085.4 909.4 1085.2 909.5 1085 909.5Z" fill="white"/>
<path d="M1086.9 913.3C1086.8 913.3 1086.7 913.3 1086.6 913.2C1078.9 908.9 1072.3 913.1 1072.3 913.2C1072.1 913.4 1071.7 913.3 1071.6 913.1C1071.4 912.9 1071.5 912.5 1071.7 912.4C1071.8 912.4 1078.9 907.7 1087.1 912.4C1087.4 912.5 1087.4 912.9 1087.3 913.1C1087.2 913.2 1087.1 913.3 1086.9 913.3Z" fill="white"/>
<path d="M1099.1 937.1H1061C1060 937.1 1059.2 936.3 1059.2 935.3V931.9H1101V935.3C1101 936.3 1100.1 937.1 1099.1 937.1Z" fill="#3F4249"/>
<path d="M1054.3 872.8L1055 884.4H1090L1090.2 872.8H1054.3Z" fill="#5064FF"/>
<path opacity="0.2" d="M1074 872.8V884.4H1090L1090.2 872.8H1074Z" fill="black"/>
<path d="M1042 457.1L1045.7 477.1L1052 476.4L1048.3 455.7L1042 457.1Z" fill="#001B34"/>
<path d="M1047.3 473.8C1050.78 473.8 1053.6 470.98 1053.6 467.5C1053.6 464.021 1050.78 461.2 1047.3 461.2C1043.82 461.2 1041 464.021 1041 467.5C1041 470.98 1043.82 473.8 1047.3 473.8Z" fill="#5064FF"/>
<path d="M1047.3 472.8C1050.23 472.8 1052.6 470.427 1052.6 467.5C1052.6 464.573 1050.23 462.2 1047.3 462.2C1044.37 462.2 1042 464.573 1042 467.5C1042 470.427 1044.37 472.8 1047.3 472.8Z" fill="white"/>
<path d="M1050.8 468L1047.2 467.8L1044.6 465.9C1044.5 465.8 1044.4 465.6 1044.5 465.5C1044.6 465.4 1044.8 465.3 1044.9 465.4L1047.3 467.2L1050.7 467.4C1050.9 467.4 1051 467.5 1051 467.7C1051.1 467.8 1051 468 1050.8 468Z" fill="#001B34"/>
<path d="M912.2 937.6H863.2C857.3 937.6 852.5 932.8 852.5 926.9V391.1C852.5 385.2 857.3 380.4 863.2 380.4H912.2C928.3 380.4 941.4 393.5 941.4 409.6V908.5C941.4 924.5 928.3 937.6 912.2 937.6Z" fill="#21252B"/>
<path d="M888.3 937.6H654.2C636.9 937.6 622.8 923.5 622.8 906.2V411.7C622.8 394.4 636.9 380.3 654.2 380.3H888.3C905.6 380.3 919.7 394.4 919.7 411.7V906.1C919.7 923.5 905.7 937.6 888.3 937.6Z" fill="#61656D"/>
<path d="M887.9 393.1H827.3C823.2 393.1 819.6 396 818.9 400.1C818.1 404.2 814.6 407.1 810.5 407.1H732.2C728.1 407.1 724.5 404.2 723.8 400.1C723 396 719.5 393.1 715.4 393.1H654.8C644.1 393.1 635.4 401.8 635.4 412.5V905.2C635.4 915.9 644.1 924.6 654.8 924.6H888.1C898.8 924.6 907.5 915.9 907.5 905.2V412.6C907.4 401.8 898.7 393.1 887.9 393.1Z" fill="#5064FF"/>
<path opacity="0.5" d="M887.9 393.1H827.3C823.2 393.1 819.6 396 818.9 400.1C818.1 404.2 814.6 407.1 810.5 407.1H732.2C728.1 407.1 724.5 404.2 723.8 400.1C723 396 719.5 393.1 715.4 393.1H654.8C644.1 393.1 635.4 401.8 635.4 412.5V905.2C635.4 915.9 644.1 924.6 654.8 924.6H888.1C898.8 924.6 907.5 915.9 907.5 905.2V412.6C907.4 401.8 898.7 393.1 887.9 393.1Z" fill="white"/>
<path opacity="0.5" d="M802.5 397.6H740C738.8 397.6 737.8 396.6 737.8 395.4C737.8 394.2 738.8 393.2 740 393.2H802.5C803.7 393.2 804.7 394.2 804.7 395.4C804.7 396.6 803.8 397.6 802.5 397.6Z" fill="black"/>
<path d="M598.1 494.2L587.3 488.5L586.8 489.4C553.6 478.4 516.3 492.7 499.5 524.7C482.7 556.7 491.9 595.5 519.8 616.7L519.3 617.6L530.1 623.3C565.7 642.1 609.9 628.4 628.6 592.7C647.5 557 633.8 512.9 598.1 494.2Z" fill="#5064FF"/>
<path opacity="0.3" d="M598.1 494.2L587.3 488.5L586.8 489.4C553.6 478.4 516.3 492.7 499.5 524.7C482.7 556.7 491.9 595.5 519.8 616.7L519.3 617.6L530.1 623.3C565.7 642.1 609.9 628.4 628.6 592.7C647.5 557 633.8 512.9 598.1 494.2Z" fill="black"/>
<path d="M557 627.8C597.261 627.8 629.9 595.162 629.9 554.9C629.9 514.638 597.261 482 557 482C516.738 482 484.1 514.638 484.1 554.9C484.1 595.162 516.738 627.8 557 627.8Z" fill="#5064FF"/>
<path d="M577.1 555.1C577 554.8 576.8 554.5 576.4 554.3L570.3 551.1C570.9 548.9 571.1 546.8 570.7 544.7L579.1 549.1C579.4 549.3 579.8 549.3 580.1 549.2C580.4 549.1 580.7 548.9 580.9 548.5L582.8 544.8C583 544.5 583 544.1 582.9 543.8C582.8 543.5 582.6 543.2 582.2 543L552.3 527.3C552 527.1 551.6 527.1 551.3 527.2C551 527.3 550.7 527.5 550.5 527.9L548 532.7C547.8 533 547.8 533.3 547.9 533.7C548 534 548.2 534.3 548.5 534.5L553.7 537.2C558.8 539.9 561.3 542.9 561.2 546.3L546.4 538.5C546.1 538.3 545.7 538.3 545.4 538.4C545.1 538.5 544.8 538.7 544.6 539.1L542.7 542.8C542.5 543.1 542.5 543.5 542.6 543.8C542.7 544.1 542.9 544.4 543.3 544.6L558.7 552.7C557.1 554.4 555.1 555.2 552.6 555.3C550.1 555.3 547.3 554.5 544.1 552.8L540.1 550.7C539.8 550.5 539.5 550.5 539.1 550.6C538.8 550.7 538.5 550.9 538.3 551.2L535.9 555.8C535.7 556.1 535.7 556.4 535.8 556.8C537.8 564.1 539.2 569.3 541.9 582C542 582.4 542.2 582.7 542.6 582.9L549.6 586.6C550.1 586.9 550.6 586.8 551 586.5C551.5 586.2 551.6 585.8 551.5 585.2C549 572.9 547.9 568.4 546.1 562C550.4 563.7 554.4 564.1 558.1 563.3C561.8 562.5 564.8 560.5 567.2 557.3L573.2 560.5C573.5 560.7 573.9 560.7 574.2 560.6C574.5 560.5 574.8 560.3 575 559.9L576.9 556.2C577.1 555.8 577.2 555.4 577.1 555.1Z" fill="#5064FF"/>
<path opacity="0.3" d="M557 614.9C590.137 614.9 617 588.037 617 554.9C617 521.763 590.137 494.9 557 494.9C523.863 494.9 497 521.763 497 554.9C497 588.037 523.863 614.9 557 614.9Z" fill="black"/>
<path opacity="0.2" d="M509.8 530.1C524.7 501.8 559.1 490.3 587.8 503.5C586.9 502.9 585.9 502.4 584.9 501.9C555.6 486.5 519.3 497.7 503.9 527C488.5 556.3 499.7 592.6 529 608C530 608.5 531 609 532 609.5C504.9 593.2 494.9 558.4 509.8 530.1Z" fill="black"/>
<path d="M582 557.7C581.9 557.4 581.7 557.1 581.3 556.9L575.2 553.7C575.8 551.5 576 549.4 575.6 547.3L584 551.7C584.3 551.9 584.7 551.9 585 551.8C585.3 551.7 585.6 551.5 585.8 551.1L587.7 547.4C587.9 547.1 587.9 546.7 587.8 546.4C587.7 546.1 587.5 545.8 587.1 545.6L557.3 530C557 529.8 556.6 529.8 556.3 529.9C556 530 555.7 530.2 555.5 530.6L553 535.4C552.8 535.7 552.8 536 552.9 536.4C553 536.7 553.2 537 553.5 537.2L558.7 539.9C563.8 542.6 566.3 545.6 566.2 549L551.4 541.2C551.1 541 550.7 541 550.4 541.1C550.1 541.2 549.8 541.4 549.6 541.8L547.7 545.5C547.5 545.8 547.5 546.2 547.6 546.5C547.7 546.8 547.9 547.1 548.3 547.3L563.7 555.4C562.1 557.1 560.1 557.9 557.6 558C555.1 558 552.3 557.2 549.1 555.5L545.1 553.4C544.8 553.2 544.5 553.2 544.1 553.3C543.8 553.4 543.5 553.6 543.3 553.9L540.9 558.5C540.7 558.8 540.7 559.1 540.8 559.5C542.8 566.8 544.2 572 546.9 584.7C547 585.1 547.2 585.4 547.6 585.6L554.6 589.3C555.1 589.6 555.6 589.5 556 589.2C556.5 588.9 556.6 588.5 556.5 587.9C554 575.6 552.9 571.1 551.1 564.7C555.4 566.4 559.4 566.8 563.1 566C566.8 565.2 569.8 563.2 572.2 560L578.2 563.2C578.5 563.4 578.9 563.4 579.2 563.3C579.5 563.2 579.8 563 580 562.6L581.9 558.9C582.1 558.4 582.1 558.1 582 557.7Z" fill="#5064FF"/>
<path opacity="0.3" d="M582 557.7C581.9 557.4 581.7 557.1 581.3 556.9L575.2 553.7C575.8 551.5 576 549.4 575.6 547.3L584 551.7C584.3 551.9 584.7 551.9 585 551.8C585.3 551.7 585.6 551.5 585.8 551.1L587.7 547.4C587.9 547.1 587.9 546.7 587.8 546.4C587.7 546.1 587.5 545.8 587.1 545.6L557.3 530C557 529.8 556.6 529.8 556.3 529.9C556 530 555.7 530.2 555.5 530.6L553 535.4C552.8 535.7 552.8 536 552.9 536.4C553 536.7 553.2 537 553.5 537.2L558.7 539.9C563.8 542.6 566.3 545.6 566.2 549L551.4 541.2C551.1 541 550.7 541 550.4 541.1C550.1 541.2 549.8 541.4 549.6 541.8L547.7 545.5C547.5 545.8 547.5 546.2 547.6 546.5C547.7 546.8 547.9 547.1 548.3 547.3L563.7 555.4C562.1 557.1 560.1 557.9 557.6 558C555.1 558 552.3 557.2 549.1 555.5L545.1 553.4C544.8 553.2 544.5 553.2 544.1 553.3C543.8 553.4 543.5 553.6 543.3 553.9L540.9 558.5C540.7 558.8 540.7 559.1 540.8 559.5C542.8 566.8 544.2 572 546.9 584.7C547 585.1 547.2 585.4 547.6 585.6L554.6 589.3C555.1 589.6 555.6 589.5 556 589.2C556.5 588.9 556.6 588.5 556.5 587.9C554 575.6 552.9 571.1 551.1 564.7C555.4 566.4 559.4 566.8 563.1 566C566.8 565.2 569.8 563.2 572.2 560L578.2 563.2C578.5 563.4 578.9 563.4 579.2 563.3C579.5 563.2 579.8 563 580 562.6L581.9 558.9C582.1 558.4 582.1 558.1 582 557.7Z" fill="black"/>
<path d="M577.1 555.1C577 554.8 576.8 554.5 576.4 554.3L570.3 551.1C570.9 548.9 571.1 546.8 570.7 544.7L579.1 549.1C579.4 549.3 579.8 549.3 580.1 549.2C580.4 549.1 580.7 548.9 580.9 548.5L582.8 544.8C583 544.5 583 544.1 582.9 543.8C582.8 543.5 582.6 543.2 582.2 543L552.3 527.3C552 527.1 551.6 527.1 551.3 527.2C551 527.3 550.7 527.5 550.5 527.9L548 532.7C547.8 533 547.8 533.3 547.9 533.7C548 534 548.2 534.3 548.5 534.5L553.7 537.2C558.8 539.9 561.3 542.9 561.2 546.3L546.4 538.5C546.1 538.3 545.7 538.3 545.4 538.4C545.1 538.5 544.8 538.7 544.6 539.1L542.7 542.8C542.5 543.1 542.5 543.5 542.6 543.8C542.7 544.1 542.9 544.4 543.3 544.6L558.7 552.7C557.1 554.4 555.1 555.2 552.6 555.3C550.1 555.3 547.3 554.5 544.1 552.8L540.1 550.7C539.8 550.5 539.5 550.5 539.1 550.6C538.8 550.7 538.5 550.9 538.3 551.2L535.9 555.8C535.7 556.1 535.7 556.4 535.8 556.8C537.8 564.1 539.2 569.3 541.9 582C542 582.4 542.2 582.7 542.6 582.9L549.6 586.6C550.1 586.9 550.6 586.8 551 586.5C551.5 586.2 551.6 585.8 551.5 585.2C549 572.9 547.9 568.4 546.1 562C550.4 563.7 554.4 564.1 558.1 563.3C561.8 562.5 564.8 560.5 567.2 557.3L573.2 560.5C573.5 560.7 573.9 560.7 574.2 560.6C574.5 560.5 574.8 560.3 575 559.9L576.9 556.2C577.1 555.8 577.2 555.4 577.1 555.1Z" fill="#5064FF"/>
<path d="M864.9 476.4H668.2C667.2 476.4 666.3 475.5 666.3 474.5V462.3C666.3 461.3 667.2 460.4 668.2 460.4H864.9C865.9 460.4 866.8 461.3 866.8 462.3V474.5C866.8 475.5 866 476.4 864.9 476.4Z" fill="white"/>
<path d="M841.6 510.5H691.5C690.5 510.5 689.6 509.6 689.6 508.6V496.4C689.6 495.4 690.5 494.5 691.5 494.5H841.6C842.6 494.5 843.5 495.4 843.5 496.4V508.6C843.5 509.6 842.7 510.5 841.6 510.5Z" fill="white"/>
<path d="M817.4 839.9H715.7C712.5 839.9 709.9 837.3 709.9 834.1V817.5C709.9 814.3 712.5 811.7 715.7 811.7H817.4C820.6 811.7 823.2 814.3 823.2 817.5V834.1C823.3 837.3 820.6 839.9 817.4 839.9Z" fill="#5064FF"/>
<path d="M779.9 580.8H770.7V582.8C763.2 586.3 758 593.9 758 602.7V756C758 764.8 763.2 772.4 770.7 775.9V777.9H779.9C792 777.9 801.8 768.1 801.8 756V602.7C801.8 590.6 792 580.8 779.9 580.8Z" fill="#5064FF"/>
<path opacity="0.3" d="M779.9 580.8H770.7V582.8C763.2 586.3 758 593.9 758 602.7V756C758 764.8 763.2 772.4 770.7 775.9V777.9H779.9C792 777.9 801.8 768.1 801.8 756V602.7C801.8 590.6 792 580.8 779.9 580.8Z" fill="white"/>
<path d="M770.6 777.9C758.5 777.9 748.7 768.1 748.7 756V602.7C748.7 590.6 758.5 580.8 770.6 580.8C782.7 580.8 792.5 590.6 792.5 602.7V756C792.5 768.1 782.7 777.9 770.6 777.9Z" fill="white"/>
<path d="M770.6 767.1C764 767.1 758.7 761.8 758.7 755.2V603.6C758.7 597 764 591.7 770.6 591.7C777.2 591.7 782.5 597 782.5 603.6V755.2C782.6 761.7 777.2 767.1 770.6 767.1Z" fill="#3F4249"/>
<path d="M782.6 606.5C776.6 605 770.3 604.1 763.8 604.1H751.3V605.1C715.7 611.1 688.6 642 688.6 679.3C688.6 716.6 715.7 747.5 751.3 753.5V754.5H763.8C770.3 754.5 776.6 753.7 782.6 752.1V606.5Z" fill="#5064FF"/>
<path opacity="0.3" d="M782.6 606.5C776.6 605 770.3 604.1 763.8 604.1H751.3V605.1C715.7 611.1 688.6 642 688.6 679.3C688.6 716.6 715.7 747.5 751.3 753.5V754.5H763.8C770.3 754.5 776.6 753.7 782.6 752.1V606.5Z" fill="black"/>
<path d="M782.6 609.2C774.2 605.9 765 604.1 755.4 604.1C713.8 604.1 680.1 637.8 680.1 679.4C680.1 721 713.8 754.7 755.4 754.7C765 754.7 774.1 752.9 782.6 749.6V609.2Z" fill="#5064FF"/>
<path opacity="0.3" d="M782.6 623.8C774.4 619.8 765.2 617.5 755.4 617.5C721.2 617.5 693.5 645.201 693.5 679.401C693.5 713.601 721.2 741.3 755.4 741.3C765.1 741.3 774.4 739 782.6 735V623.8Z" fill="black"/>
<path d="M773.8 669.9C773.5 669.6 773.2 669.5 772.8 669.5H765.6C765.1 667.2 764.2 665.2 762.9 663.5H772.7C773.1 663.5 773.4 663.4 773.7 663.1C774 662.8 774.1 662.5 774.1 662.1V657.8C774.1 657.4 774 657.1 773.7 656.8C773.4 656.5 773.1 656.4 772.7 656.4H737.8C737.4 656.4 737.1 656.5 736.8 656.8C736.5 657.1 736.4 657.4 736.4 657.8V663.4C736.4 663.8 736.5 664.1 736.8 664.3C737.1 664.6 737.4 664.7 737.7 664.7H743.8C749.7 664.7 753.4 666.3 755 669.4H737.7C737.3 669.4 737 669.5 736.7 669.8C736.4 670.1 736.3 670.4 736.3 670.8V675.1C736.3 675.5 736.4 675.8 736.7 676.1C737 676.4 737.3 676.5 737.7 676.5H755.6C755 678.8 753.6 680.5 751.3 681.7C749.1 682.9 746.1 683.5 742.4 683.5H737.7C737.3 683.5 737 683.6 736.8 683.9C736.5 684.2 736.4 684.5 736.4 684.8V690.1C736.4 690.5 736.5 690.8 736.8 691C742.2 696.7 745.9 700.8 754.5 711C754.8 711.3 755.1 711.5 755.5 711.5H763.7C764.3 711.5 764.7 711.2 764.9 710.7C765.2 710.2 765.1 709.7 764.7 709.3C756.5 699.3 753.3 695.7 748.7 690.7C753.4 690.1 757.3 688.6 760.3 686.1C763.3 683.6 765.1 680.3 765.7 676.3H772.7C773.1 676.3 773.4 676.2 773.7 675.9C774 675.6 774.1 675.3 774.1 674.9V670.6C774.2 670.4 774.1 670.1 773.8 669.9Z" fill="#5064FF"/>
<path opacity="0.2" d="M700.4 679.3C700.4 646.3 726.3 619.3 758.8 617.5C757.7 617.4 756.5 617.4 755.4 617.4C721.2 617.4 693.5 645.1 693.5 679.3C693.5 713.5 721.2 741.2 755.4 741.2C756.5 741.2 757.7 741.2 758.8 741.1C726.2 739.3 700.4 712.4 700.4 679.3Z" fill="black"/>
<path d="M779.6 669.9C779.3 669.6 779 669.5 778.6 669.5H771.4C770.9 667.2 770 665.2 768.7 663.5H778.5C778.9 663.5 779.2 663.4 779.5 663.1C779.8 662.8 779.9 662.5 779.9 662.1V657.8C779.9 657.4 779.8 657.1 779.5 656.8C779.2 656.5 778.9 656.4 778.5 656.4H743.6C743.2 656.4 742.9 656.5 742.6 656.8C742.3 657.1 742.2 657.4 742.2 657.8V663.4C742.2 663.8 742.3 664.1 742.6 664.3C742.9 664.6 743.2 664.7 743.5 664.7H749.6C755.5 664.7 759.2 666.3 760.8 669.4H743.5C743.1 669.4 742.8 669.5 742.5 669.8C742.2 670.1 742.1 670.4 742.1 670.8V675.1C742.1 675.5 742.2 675.8 742.5 676.1C742.8 676.4 743.1 676.5 743.5 676.5H761.4C760.8 678.8 759.4 680.5 757.1 681.7C754.9 682.9 751.9 683.5 748.2 683.5H743.5C743.1 683.5 742.8 683.6 742.6 683.9C742.3 684.2 742.2 684.5 742.2 684.8V690.1C742.2 690.5 742.3 690.8 742.6 691C748 696.7 751.7 700.8 760.3 711C760.6 711.3 760.9 711.5 761.3 711.5H769.5C770.1 711.5 770.5 711.2 770.7 710.7C771 710.2 770.9 709.7 770.5 709.3C762.3 699.3 759.1 695.7 754.5 690.7C759.2 690.1 763.1 688.6 766.1 686.1C769.1 683.6 770.9 680.3 771.5 676.3H778.5C778.9 676.3 779.2 676.2 779.5 675.9C779.8 675.6 779.9 675.3 779.9 674.9V670.6C780 670.4 779.9 670.1 779.6 669.9Z" fill="#5064FF"/>
<path opacity="0.3" d="M779.6 669.9C779.3 669.6 779 669.5 778.6 669.5H771.4C770.9 667.2 770 665.2 768.7 663.5H778.5C778.9 663.5 779.2 663.4 779.5 663.1C779.8 662.8 779.9 662.5 779.9 662.1V657.8C779.9 657.4 779.8 657.1 779.5 656.8C779.2 656.5 778.9 656.4 778.5 656.4H743.6C743.2 656.4 742.9 656.5 742.6 656.8C742.3 657.1 742.2 657.4 742.2 657.8V663.4C742.2 663.8 742.3 664.1 742.6 664.3C742.9 664.6 743.2 664.7 743.5 664.7H749.6C755.5 664.7 759.2 666.3 760.8 669.4H743.5C743.1 669.4 742.8 669.5 742.5 669.8C742.2 670.1 742.1 670.4 742.1 670.8V675.1C742.1 675.5 742.2 675.8 742.5 676.1C742.8 676.4 743.1 676.5 743.5 676.5H761.4C760.8 678.8 759.4 680.5 757.1 681.7C754.9 682.9 751.9 683.5 748.2 683.5H743.5C743.1 683.5 742.8 683.6 742.6 683.9C742.3 684.2 742.2 684.5 742.2 684.8V690.1C742.2 690.5 742.3 690.8 742.6 691C748 696.7 751.7 700.8 760.3 711C760.6 711.3 760.9 711.5 761.3 711.5H769.5C770.1 711.5 770.5 711.2 770.7 710.7C771 710.2 770.9 709.7 770.5 709.3C762.3 699.3 759.1 695.7 754.5 690.7C759.2 690.1 763.1 688.6 766.1 686.1C769.1 683.6 770.9 680.3 771.5 676.3H778.5C778.9 676.3 779.2 676.2 779.5 675.9C779.8 675.6 779.9 675.3 779.9 674.9V670.6C780 670.4 779.9 670.1 779.6 669.9Z" fill="black"/>
<path d="M773.8 669.9C773.5 669.6 773.2 669.5 772.8 669.5H765.6C765.1 667.2 764.2 665.2 762.9 663.5H772.7C773.1 663.5 773.4 663.4 773.7 663.1C774 662.8 774.1 662.5 774.1 662.1V657.8C774.1 657.4 774 657.1 773.7 656.8C773.4 656.5 773.1 656.4 772.7 656.4H737.8C737.4 656.4 737.1 656.5 736.8 656.8C736.5 657.1 736.4 657.4 736.4 657.8V663.4C736.4 663.8 736.5 664.1 736.8 664.3C737.1 664.6 737.4 664.7 737.7 664.7H743.8C749.7 664.7 753.4 666.3 755 669.4H737.7C737.3 669.4 737 669.5 736.7 669.8C736.4 670.1 736.3 670.4 736.3 670.8V675.1C736.3 675.5 736.4 675.8 736.7 676.1C737 676.4 737.3 676.5 737.7 676.5H755.6C755 678.8 753.6 680.5 751.3 681.7C749.1 682.9 746.1 683.5 742.4 683.5H737.7C737.3 683.5 737 683.6 736.8 683.9C736.5 684.2 736.4 684.5 736.4 684.8V690.1C736.4 690.5 736.5 690.8 736.8 691C742.2 696.7 745.9 700.8 754.5 711C754.8 711.3 755.1 711.5 755.5 711.5H763.7C764.3 711.5 764.7 711.2 764.9 710.7C765.2 710.2 765.1 709.7 764.7 709.3C756.5 699.3 753.3 695.7 748.7 690.7C753.4 690.1 757.3 688.6 760.3 686.1C763.3 683.6 765.1 680.3 765.7 676.3H772.7C773.1 676.3 773.4 676.2 773.7 675.9C774 675.6 774.1 675.3 774.1 674.9V670.6C774.2 670.4 774.1 670.1 773.8 669.9Z" fill="#5064FF"/>
<path opacity="0.3" d="M782.6 602.1H772.8V756.5H782.6V602.1Z" fill="#263238"/>
<path d="M483.3 937.6H442.9C438.1 937.6 434.1 934.1 433.4 929.3L422.3 850.2H482.1L492.8 926.6C493.7 932.4 489.2 937.6 483.3 937.6Z" fill="#3F4249"/>
<path d="M234.8 937.6H275.2C280 937.6 284 934.1 284.7 929.3L295.8 850.2H236L225.3 926.6C224.5 932.4 229 937.6 234.8 937.6Z" fill="#3F4249"/>
<path opacity="0.2" d="M234.8 937.6H275.2C280 937.6 284 934.1 284.7 929.3L295.8 850.2H236L225.3 926.6C224.5 932.4 229 937.6 234.8 937.6Z" fill="black"/>
<path d="M249.4 929.3L260.5 850.2H236L225.3 926.6C224.5 932.4 229 937.5 234.8 937.5H239.9C244.7 937.6 248.8 934 249.4 929.3Z" fill="#3F4249"/>
<path opacity="0.2" d="M483.3 937.6H442.9C438.1 937.6 434.1 934.1 433.4 929.3L422.3 850.2H482.1L492.8 926.6C493.7 932.4 489.2 937.6 483.3 937.6Z" fill="black"/>
<path d="M462 926.6L451.3 850.2H422.3L433.4 929.3C434.1 934 438.1 937.6 442.9 937.6H452.5C458.3 937.6 462.8 932.4 462 926.6Z" fill="#3F4249"/>
<path d="M155.2 937.6H195.6C200.4 937.6 204.4 934.1 205.1 929.3L216.2 850.2H156.4L145.7 926.6C144.9 932.4 149.4 937.6 155.2 937.6Z" fill="#3F4249"/>
<path d="M403.7 937.6H363.3C358.5 937.6 354.5 934.1 353.8 929.3L342.7 850.2H402.5L413.2 926.6C414.1 932.4 409.6 937.6 403.7 937.6Z" fill="#3F4249"/>
<path opacity="0.2" d="M403.7 937.6H363.3C358.5 937.6 354.5 934.1 353.8 929.3L342.7 850.2H402.5L413.2 926.6C414.1 932.4 409.6 937.6 403.7 937.6Z" fill="black"/>
<path opacity="0.2" d="M155.2 937.6H195.6C200.4 937.6 204.4 934.1 205.1 929.3L216.2 850.2H156.4L145.7 926.6C144.9 932.4 149.4 937.6 155.2 937.6Z" fill="black"/>
<path d="M190 699.7C203.807 699.7 215 681.299 215 658.6C215 635.901 203.807 617.5 190 617.5C176.193 617.5 165 635.901 165 658.6C165 681.299 176.193 699.7 190 699.7Z" fill="#3F4249"/>
<path opacity="0.3" d="M190 699.7C203.807 699.7 215 681.299 215 658.6C215 635.901 203.807 617.5 190 617.5C176.193 617.5 165 635.901 165 658.6C165 681.299 176.193 699.7 190 699.7Z" fill="black"/>
<path d="M546.7 795.4C545.3 795.4 543.8 795.3 542.3 795.2C539.4 795 537.2 792.4 537.5 789.5C537.7 786.6 540.3 784.5 543.2 784.7C549 785.2 554.5 784.4 558.9 782.6C553 778.1 548.7 772.1 547.1 765.7C543.9 753.3 550 744.5 557.7 742.3C565.2 740.2 575.1 743.9 579.3 757.3C581.8 765.3 581.3 773 577.9 779.4C583.3 780.2 589.4 779.7 595.8 777.8C598.6 777 601.5 778.6 602.4 781.4C603.2 784.2 601.6 787.1 598.8 788C586.7 791.6 577.1 790.7 570.1 788.5C564 792.9 555.8 795.4 546.7 795.4ZM561.7 752.3C561.3 752.3 561 752.4 560.6 752.4C557.9 753.2 555.7 756.8 557.3 763C558.3 766.8 561.5 772.1 567.7 775.8C570.5 771.6 571 766.4 569.2 760.4C567.4 754.7 564.2 752.3 561.7 752.3Z" fill="#3F4249"/>
<g opacity="0.5">
<path opacity="0.5" d="M546.7 795.4C545.3 795.4 543.8 795.3 542.3 795.2C539.4 795 537.2 792.4 537.5 789.5C537.7 786.6 540.3 784.5 543.2 784.7C549 785.2 554.5 784.4 558.9 782.6C553 778.1 548.7 772.1 547.1 765.7C543.9 753.3 550 744.5 557.7 742.3C565.2 740.2 575.1 743.9 579.3 757.3C581.8 765.3 581.3 773 577.9 779.4C583.3 780.2 589.4 779.7 595.8 777.8C598.6 777 601.5 778.6 602.4 781.4C603.2 784.2 601.6 787.1 598.8 788C586.7 791.6 577.1 790.7 570.1 788.5C564 792.9 555.8 795.4 546.7 795.4ZM561.7 752.3C561.3 752.3 561 752.4 560.6 752.4C557.9 753.2 555.7 756.8 557.3 763C558.3 766.8 561.5 772.1 567.7 775.8C570.5 771.6 571 766.4 569.2 760.4C567.4 754.7 564.2 752.3 561.7 752.3Z" fill="black"/>
</g>
<path d="M413.4 903.5H238C165.5 903.5 106.7 844.7 106.7 772.2C106.7 699.7 165.5 640.9 238 640.9H413.4C485.9 640.9 544.7 699.7 544.7 772.2C544.7 844.7 485.9 903.5 413.4 903.5Z" fill="#3F4249"/>
<path opacity="0.2" d="M482.6 660.6C498.1 682.5 507.2 709.2 507.2 738C507.2 812 447.2 872 373.2 872H194.2C175.5 872 157.6 868.1 141.4 861.2C165.4 887.2 199.7 903.5 237.9 903.5H413.3C485.8 903.5 544.6 844.7 544.6 772.2C544.7 725.1 519.9 683.8 482.6 660.6Z" fill="black"/>
<path d="M121.1 731.1H107.9V735.4C95.8 743.7 87.3 763.1 87.3 785.6C87.3 808.1 95.8 827.5 107.9 835.8V840.1H121.1C139.8 840.1 154.9 815.7 154.9 785.6C154.9 755.5 139.8 731.1 121.1 731.1Z" fill="#3F4249"/>
<path opacity="0.3" d="M121.1 731.1H107.9V735.4C95.8 743.7 87.3 763.1 87.3 785.6C87.3 808.1 95.8 827.5 107.9 835.8V840.1H121.1C139.8 840.1 154.9 815.7 154.9 785.6C154.9 755.5 139.8 731.1 121.1 731.1Z" fill="black"/>
<path d="M107.9 840.2C126.567 840.2 141.7 815.8 141.7 785.7C141.7 755.601 126.567 731.2 107.9 731.2C89.233 731.2 74.1 755.601 74.1 785.7C74.1 815.8 89.233 840.2 107.9 840.2Z" fill="#3F4249"/>
<path opacity="0.3" d="M92.1 800.8C94.751 800.8 96.9 793.816 96.9 785.2C96.9 776.584 94.751 769.6 92.1 769.6C89.449 769.6 87.3 776.584 87.3 785.2C87.3 793.816 89.449 800.8 92.1 800.8Z" fill="black"/>
<path opacity="0.3" d="M112.7 800.8C115.351 800.8 117.5 793.816 117.5 785.2C117.5 776.584 115.351 769.6 112.7 769.6C110.049 769.6 107.9 776.584 107.9 785.2C107.9 793.816 110.049 800.8 112.7 800.8Z" fill="black"/>
<path opacity="0.3" d="M190 721.1C194.252 721.1 197.7 714.429 197.7 706.2C197.7 697.971 194.252 691.3 190 691.3C185.747 691.3 182.3 697.971 182.3 706.2C182.3 714.429 185.747 721.1 190 721.1Z" fill="black"/>
<path opacity="0.3" d="M140.7 721.1C144.952 721.1 148.4 714.429 148.4 706.2C148.4 697.971 144.952 691.3 140.7 691.3C136.447 691.3 133 697.971 133 706.2C133 714.429 136.447 721.1 140.7 721.1Z" fill="black"/>
<path d="M276.9 676.3C278.4 670.9 279.3 665 279.3 658.6C279.3 635.9 268.1 617.5 254.3 617.5C240.5 617.5 229.3 635.9 229.3 658.6C229.3 661.7 229.5 664.7 229.9 667.5L276.9 676.3Z" fill="#3F4249"/>
<path opacity="0.3" d="M256.5 659.5C257.6 659.7 258.7 658.9 258.7 657.7C258.8 653.1 258.6 645 258.6 643.2C258.6 635.4 254.3 629.1 249.1 629.1C243.9 629.1 239.6 635.4 239.6 643.2C239.6 644.1 239.5 651.4 239.5 654.7C239.5 655.6 240.1 656.3 241 656.5L256.5 659.5Z" fill="black"/>
<g opacity="0.2">
<path opacity="0.2" d="M229.8 660.3C229.3 660.3 229 659.9 229 659.5C229.3 649.4 231 640.8 231 640.7C231.1 640.3 231.5 640 232 640.1C232.4 640.2 232.7 640.6 232.6 641.1C232.6 641.2 230.9 649.6 230.7 659.6C230.6 660 230.3 660.3 229.8 660.3Z" fill="black"/>
</g>
<path opacity="0.3" d="M288.7 668.4H290.7C289.4 657.2 284.4 647.5 278.6 640.9H276.8C278.4 646.3 279.2 652.3 279.2 658.6V658.7C279.2 664 283.4 668.4 288.7 668.4Z" fill="black"/>
<path d="M440.6 692H286C282.4 692 279.6 689.1 279.6 685.6C279.6 682 282.5 679.2 286 679.2H440.6C444.2 679.2 447 682.1 447 685.6C447.1 689.1 444.2 692 440.6 692Z" fill="#3F4249"/>
<path opacity="0.5" d="M440.6 692H286C282.4 692 279.6 689.1 279.6 685.6C279.6 682 282.5 679.2 286 679.2H440.6C444.2 679.2 447 682.1 447 685.6C447.1 689.1 444.2 692 440.6 692Z" fill="black"/>
<path d="M301.5 692H433.6C439.5 679.4 441.9 665 439.7 650.3C433.7 610.5 396.6 583 356.8 588.9L344.8 590.7L345 591.7C311.7 602.5 290.2 636.1 295.5 671.8C296.5 679 298.6 685.7 301.5 692Z" fill="#5064FF"/>
<path opacity="0.3" d="M301.5 692H433.6C439.5 679.4 441.9 665 439.7 650.3C433.7 610.5 396.6 583 356.8 588.9L344.8 590.7L345 591.7C311.7 602.5 290.2 636.1 295.5 671.8C296.5 679 298.6 685.7 301.5 692Z" fill="black"/>
<path d="M292.9 692.001H426.1C431.6 679.701 433.8 665.801 431.6 651.501C425.6 611.701 388.5 584.201 348.7 590.101C308.9 596.101 281.4 633.201 287.3 673.001C288.4 679.701 290.3 686.001 292.9 692.001Z" fill="#5064FF"/>
<path d="M381.4 649.7C381.1 649.5 380.8 649.4 380.4 649.5L373.5 650.5C372.7 648.3 371.6 646.5 370.1 645.1L379.5 643.7C379.9 643.6 380.2 643.5 380.4 643.2C380.6 642.9 380.7 642.6 380.6 642.2L380 638.1C379.9 637.7 379.8 637.4 379.5 637.2C379.2 637 378.9 636.9 378.5 637L345.1 642C344.7 642.1 344.4 642.2 344.2 642.5C344 642.8 343.9 643.1 344 643.5L344.8 648.8C344.9 649.1 345 649.4 345.3 649.6C345.6 649.8 345.9 649.9 346.3 649.8L352.1 648.9C357.8 648.1 361.6 649 363.5 651.8L346.9 654.3C346.5 654.4 346.2 654.5 346 654.8C345.8 655.1 345.7 655.4 345.8 655.8L346.4 659.9C346.5 660.3 346.6 660.6 346.9 660.8C347.2 661 347.5 661.1 347.9 661L365.1 658.4C364.8 660.7 363.7 662.6 361.7 664C359.7 665.5 357 666.5 353.4 667L348.9 667.7C348.6 667.8 348.3 667.9 348.1 668.2C347.9 668.5 347.8 668.8 347.9 669.2L348.7 674.3C348.8 674.6 348.9 674.9 349.2 675.1C355.2 679.8 359.4 683.2 369 691.8C369.5 691.8 377.9 691 377.9 691C378.5 690.9 378.8 690.6 379 690.1C379.2 689.6 379.1 689.1 378.6 688.8C369.3 680.4 365.7 677.4 360.6 673.3C365.1 672.1 368.5 670.1 371 667.2C373.5 664.4 374.7 661 374.8 657L381.5 656C381.9 655.9 382.2 655.8 382.4 655.5C382.6 655.2 382.7 654.9 382.6 654.5L382 650.4C381.8 650.1 381.6 649.9 381.4 649.7Z" fill="#5064FF"/>
<path opacity="0.3" d="M307.4 692.001H411.5C418 680.701 420.8 667.301 418.8 653.401C413.9 620.601 383.4 598.101 350.6 603.001C317.8 607.901 295.3 638.401 300.2 671.201C301.3 678.701 303.8 685.701 307.4 692.001Z" fill="black"/>
<path opacity="0.3" d="M345.2 649.701C345.5 649.901 345.8 650.001 346.2 649.901L352 649.001C357.7 648.201 361.5 649.101 363.4 651.901L346.8 654.401C346.4 654.501 346.1 654.601 345.9 654.901C345.7 655.201 345.6 655.501 345.7 655.901L346.3 660.001C346.4 660.401 346.5 660.701 346.8 660.901C347.1 661.101 347.4 661.201 347.8 661.101L365 658.501C364.7 660.801 363.6 662.701 361.6 664.101C359.6 665.601 356.9 666.601 353.3 667.101L348.8 667.801C348.5 667.901 348.2 668.001 348 668.301C347.8 668.601 347.7 668.901 347.8 669.301L348.6 674.401C348.7 674.701 348.8 675.001 349.1 675.201C355.1 679.901 359.3 683.301 368.9 691.901H372.2L377.8 691.101C378.4 691.001 378.7 690.701 378.9 690.201C379.1 689.701 379 689.201 378.5 688.901C369.2 680.501 365.6 677.501 360.5 673.401C365 672.201 368.4 670.201 370.9 667.301C373.4 664.501 374.6 661.101 374.7 657.101L381.5 656.101C381.9 656.001 382.2 655.901 382.4 655.601C382.6 655.301 382.7 655.001 382.6 654.601L382 650.501C381.9 650.101 381.8 649.801 381.5 649.601C381.2 649.401 380.9 649.301 380.5 649.401L373.6 650.401C372.8 648.201 371.7 646.401 370.2 645.001L379.6 643.601C380 643.501 380.3 643.401 380.5 643.101C380.7 642.801 380.8 642.501 380.7 642.101L380.1 638.001C380 637.601 379.9 637.301 379.6 637.101C379.3 636.901 379 636.801 378.6 636.901L345.2 641.901C344.8 642.001 344.5 642.101 344.3 642.401C344.1 642.701 344 643.001 344.1 643.401L344.9 648.701C344.8 649.201 344.9 649.401 345.2 649.701Z" fill="black"/>
<path opacity="0.2" d="M307.4 692H314.5C310.6 685.5 307.9 678.1 306.7 670.1C302 638.4 322.9 608.9 353.9 602.5C352.8 602.6 351.7 602.701 350.6 602.901C317.8 607.801 295.3 638.3 300.2 671.1C301.3 678.7 303.8 685.7 307.4 692Z" fill="black"/>
<path d="M372.4 691.9C372.9 691.8 373.2 691.5 373.3 691C373.5 690.5 373.4 690 372.9 689.7C363.6 681.3 360 678.3 354.9 674.2C359.4 673 362.8 671 365.3 668.1C367.8 665.3 369 661.9 369.1 657.9L375.8 656.9C376.2 656.8 376.5 656.7 376.7 656.4C376.9 656.1 377 655.8 376.9 655.4L376.3 651.3C376.2 650.9 376.1 650.6 375.8 650.4C375.5 650.2 375.2 650.1 374.8 650.2L367.9 651.2C367.1 649 366 647.2 364.5 645.8L373.9 644.4C374.3 644.3 374.6 644.2 374.8 643.9C375 643.6 375.1 643.3 375 642.9L374.4 638.8C374.3 638.4 374.2 638.1 373.9 637.9C373.6 637.7 373.3 637.6 372.9 637.7L339.5 642.7C339.1 642.8 338.8 642.9 338.6 643.2C338.4 643.5 338.3 643.8 338.4 644.2L339.2 649.5C339.3 649.8 339.4 650.1 339.7 650.3C340 650.5 340.3 650.6 340.7 650.5L346.5 649.6C352.2 648.8 356 649.7 357.9 652.5L341.3 655C340.9 655.1 340.6 655.2 340.4 655.5C340.2 655.8 340.1 656.1 340.2 656.5L340.8 660.6C340.9 661 341 661.3 341.3 661.5C341.6 661.7 341.9 661.8 342.3 661.7L359.5 659.1C359.2 661.4 358.1 663.3 356.1 664.7C354.1 666.2 351.4 667.2 347.8 667.7L343.3 668.4C343 668.5 342.7 668.6 342.5 668.9C342.3 669.2 342.2 669.5 342.3 669.9L343.1 675C343.2 675.3 343.3 675.6 343.6 675.8C349.4 680.3 353.5 683.7 362.4 691.6H372.4V691.9Z" fill="#5064FF"/>
<path opacity="0.5" d="M447.1 685.7H279.6C279.7 689.2 282.5 692 286 692H440.6C444.1 692 447 689.2 447.1 685.7Z" fill="black"/>
<path d="M1218.8 938.7H75.8C75.3 938.7 74.9 938.3 74.9 937.8C74.9 937.3 75.3 936.9 75.8 936.9H1218.8C1219.3 936.9 1219.7 937.3 1219.7 937.8C1219.7 938.3 1219.3 938.7 1218.8 938.7Z" fill="#B2B6BB"/>
<path d="M579.4 688.7C576.8 688.2 575.1 685.7 575.6 683.1C575.7 682.5 575.3 681.8 574.7 681.7C574.1 681.6 573.4 682 573.3 682.6C572.8 685.2 570.3 686.9 567.7 686.4C567.1 686.3 566.4 686.7 566.3 687.3C566.2 687.9 566.6 688.6 567.2 688.7C569.8 689.2 571.5 691.7 571 694.3C570.9 694.9 571.3 695.6 571.9 695.7C572.5 695.8 573.2 695.4 573.3 694.8C573.8 692.2 576.3 690.5 578.9 691C579.5 691.1 580.2 690.7 580.3 690.1C580.4 689.5 580 688.9 579.4 688.7Z" fill="#5064FF"/>
<path opacity="0.5" d="M579.4 688.7C576.8 688.2 575.1 685.7 575.6 683.1C575.7 682.5 575.3 681.8 574.7 681.7C574.1 681.6 573.4 682 573.3 682.6C572.8 685.2 570.3 686.9 567.7 686.4C567.1 686.3 566.4 686.7 566.3 687.3C566.2 687.9 566.6 688.6 567.2 688.7C569.8 689.2 571.5 691.7 571 694.3C570.9 694.9 571.3 695.6 571.9 695.7C572.5 695.8 573.2 695.4 573.3 694.8C573.8 692.2 576.3 690.5 578.9 691C579.5 691.1 580.2 690.7 580.3 690.1C580.4 689.5 580 688.9 579.4 688.7Z" fill="white"/>
<path d="M496.9 487C494.3 486.5 492.6 484 493.1 481.4C493.2 480.8 492.8 480.1 492.2 480C491.6 479.9 490.9 480.3 490.8 480.9C490.3 483.5 487.8 485.2 485.2 484.7C484.6 484.6 483.9 485 483.8 485.6C483.7 486.2 484.1 486.9 484.7 487C487.3 487.5 489 490 488.5 492.6C488.4 493.2 488.8 493.9 489.4 494C490 494.1 490.7 493.7 490.8 493.1C491.3 490.5 493.8 488.8 496.4 489.3C497 489.4 497.7 489 497.8 488.4C498 487.7 497.6 487.1 496.9 487Z" fill="#5064FF"/>
<path opacity="0.5" d="M496.9 487C494.3 486.5 492.6 484 493.1 481.4C493.2 480.8 492.8 480.1 492.2 480C491.6 479.9 490.9 480.3 490.8 480.9C490.3 483.5 487.8 485.2 485.2 484.7C484.6 484.6 483.9 485 483.8 485.6C483.7 486.2 484.1 486.9 484.7 487C487.3 487.5 489 490 488.5 492.6C488.4 493.2 488.8 493.9 489.4 494C490 494.1 490.7 493.7 490.8 493.1C491.3 490.5 493.8 488.8 496.4 489.3C497 489.4 497.7 489 497.8 488.4C498 487.7 497.6 487.1 496.9 487Z" fill="white"/>
<path d="M732.2 568C729.6 567.5 727.9 565 728.4 562.4C728.5 561.8 728.1 561.1 727.5 561C726.9 560.9 726.2 561.3 726.1 561.9C725.6 564.5 723.1 566.2 720.5 565.7C719.9 565.6 719.2 566 719.1 566.6C719 567.2 719.4 567.9 720 568C722.6 568.5 724.3 571 723.8 573.6C723.7 574.2 724.1 574.9 724.7 575C725.3 575.1 726 574.7 726.1 574.1C726.6 571.5 729.1 569.8 731.7 570.3C732.3 570.4 733 570 733.1 569.4C733.2 568.8 732.9 568.1 732.2 568Z" fill="#5064FF"/>
<path d="M375.5 560.9C372.9 560.4 371.2 557.9 371.7 555.3C371.8 554.7 371.4 554 370.8 553.9C370.2 553.8 369.5 554.2 369.4 554.8C368.9 557.4 366.4 559.1 363.8 558.6C363.2 558.5 362.5 558.9 362.4 559.5C362.3 560.1 362.7 560.8 363.3 560.9C365.9 561.4 367.6 563.9 367.1 566.5C367 567.1 367.4 567.8 368 567.9C368.6 568 369.3 567.6 369.4 567C369.9 564.4 372.4 562.7 375 563.2C375.6 563.3 376.3 562.9 376.4 562.3C376.6 561.7 376.2 561 375.5 560.9Z" fill="#5064FF"/>
<path d="M474 612.1C475.491 612.1 476.7 610.891 476.7 609.4C476.7 607.909 475.491 606.7 474 606.7C472.509 606.7 471.3 607.909 471.3 609.4C471.3 610.891 472.509 612.1 474 612.1Z" fill="#5064FF"/>
<path d="M669 652.6C670.491 652.6 671.7 651.391 671.7 649.9C671.7 648.409 670.491 647.2 669 647.2C667.509 647.2 666.3 648.409 666.3 649.9C666.3 651.391 667.509 652.6 669 652.6Z" fill="#5064FF"/>
<path d="M476.4 243.5H306.4V384.6H476.4V243.5Z" fill="#5064FF"/>
<path opacity="0.8" d="M476.4 243.5H306.4V384.6H476.4V243.5Z" fill="white"/>
<path d="M464.3 256.2H318.5V371.9H464.3V256.2Z" fill="white"/>
<path d="M480.1 243.5H476.4V384.6H480.1V243.5Z" fill="#B2B6BB"/>
<path d="M402.455 359.632V351.732H372.755V359.632H402.455Z" fill="#5064FF"/>
<path opacity="0.2" d="M387.6 342.4C407.261 342.4 423.2 326.462 423.2 306.8C423.2 287.139 407.261 271.2 387.6 271.2C367.939 271.2 352 287.139 352 306.8C352 326.462 367.939 342.4 387.6 342.4Z" fill="black"/>
<path d="M639.6 172.4H544.7V304.7H639.6V172.4Z" fill="white"/>
<path d="M639.549 304.774H641.949V172.474H639.549V304.774Z" fill="#B2B6BB"/>
<path d="M627.7 185.1H556.6V292.2H627.7V185.1Z" fill="#DADDDF"/>
<line x1="943.993" y1="319.5" x2="1394.99" y2="313.473" stroke="black"/>
</g>
<defs>
<filter id="filter0_b_83_373" x="-50" y="-50" width="1540" height="1124" filterUnits="userSpaceOnUse" color-interpolation-filters="sRGB">
<feFlood flood-opacity="0" result="BackgroundImageFix"/>
<feGaussianBlur in="BackgroundImage" stdDeviation="25"/>
<feComposite in2="SourceAlpha" operator="in" result="effect1_backgroundBlur_83_373"/>
<feBlend mode="normal" in="SourceGraphic" in2="effect1_backgroundBlur_83_373" result="shape"/>
</filter>
</defs>
</svg>
